<svg version="1.1" id="Layer_1" xmlns="http://www.w3.org/2000/svg" xmlns:xlink="http://www.w3.org/1999/xlink" x="0px" y="0px"
	 width="100%" viewBox="0 0 1563 1563" enable-background="new 0 0 1563 1563" xml:space="preserve">
<path fill="#052651" opacity="1.000000" stroke="none" 
	d="
M0.999998,1293.000000 
	C1.000000,952.969116 1.000000,612.938171 1.451409,272.525757 
	C2.402658,272.149933 2.902497,272.160553 3.402336,272.160553 
	C522.105774,272.161285 1040.809204,272.161438 1559.512573,272.154694 
	C1561.008423,272.154663 1562.504150,272.053772 1564.000000,272.000000 
	C1564.000000,612.030945 1564.000000,952.061829 1563.553711,1292.690186 
	C1561.941406,1293.304321 1560.775391,1293.335693 1559.609253,1293.335693 
	C1041.723755,1293.337769 523.838196,1293.338013 5.952636,1293.323730 
	C4.301753,1293.323730 2.650876,1293.112671 0.999998,1293.000000 
M188.597656,796.500122 
	C188.597656,770.966492 188.597656,745.432861 188.597656,719.899292 
	C190.574112,720.967529 191.524979,722.236816 192.395370,723.559021 
	C211.794998,753.029175 231.383316,782.378662 250.413849,812.085388 
	C254.283142,818.125305 258.232269,820.952454 265.438446,820.194946 
	C268.970612,819.823669 271.006561,818.881287 272.945404,815.908386 
	C292.763672,785.519958 312.742188,755.236145 332.679840,724.925598 
	C333.547455,723.606628 334.453156,722.312622 335.341125,721.006958 
	C335.666656,721.087646 335.992218,721.168335 336.317749,721.249023 
	C336.317749,754.076111 336.317749,786.903198 336.317749,819.735474 
	C341.372284,819.735474 345.794678,819.735474 350.268677,819.735474 
	C350.268677,782.395813 350.268677,745.331421 350.268677,708.029358 
	C344.101562,708.029358 338.266357,708.243103 332.457275,707.945984 
	C329.191589,707.778870 327.446503,708.952148 325.673950,711.634644 
	C305.945831,741.490051 286.069611,771.247559 266.223206,801.024719 
	C265.254791,802.477783 264.192993,803.868591 262.944031,805.609985 
	C261.588409,803.650513 260.541473,802.185120 259.543213,800.687195 
	C239.789978,771.048523 220.059418,741.394714 200.244141,711.797546 
	C199.239594,710.297119 197.567383,708.281311 196.116653,708.204956 
	C189.025574,707.831970 181.904144,708.036072 174.655273,708.036072 
	C174.655273,745.634583 174.655273,782.700867 174.655273,819.711060 
	C179.396759,819.711060 183.817917,819.711060 188.597641,819.711060 
	C188.597641,812.112122 188.597641,804.806152 188.597656,796.500122 
M1307.384644,756.466980 
	C1302.478394,755.624512 1297.275269,755.517395 1292.763672,753.696899 
	C1289.415527,752.345825 1285.259277,749.233032 1284.411011,746.105408 
	C1280.811890,732.836304 1283.730835,721.690796 1298.815430,720.087646 
	C1315.805786,718.281982 1332.991821,718.180847 1350.103027,717.725525 
	C1356.220459,717.562805 1362.434692,718.116211 1368.484985,719.087891 
	C1376.103516,720.311462 1379.356201,724.067810 1380.630249,731.596680 
	C1380.869751,733.012512 1381.023438,734.442932 1381.202637,735.763367 
	C1385.934082,735.763367 1390.349121,735.763367 1394.743774,735.763367 
	C1395.327026,721.223877 1389.656860,713.047485 1376.238037,709.130249 
	C1372.744385,708.110291 1369.097412,707.124207 1365.498779,707.037292 
	C1347.532104,706.603210 1329.542114,705.936279 1311.593628,706.472046 
	C1303.082275,706.726013 1294.436035,708.790710 1286.227661,711.278320 
	C1275.919800,714.402222 1269.889038,721.931335 1269.255981,732.969971 
	C1268.990723,737.596130 1269.252563,742.292480 1269.720337,746.911804 
	C1270.515625,754.767151 1274.909790,760.494385 1282.218994,762.901978 
	C1289.414795,765.272217 1296.982910,767.310791 1304.492432,767.766113 
	C1320.769897,768.753113 1337.123413,768.412354 1353.426392,769.086670 
	C1359.506226,769.338074 1365.622314,770.536560 1371.553711,771.989807 
	C1376.423950,773.182922 1379.169067,776.844360 1380.207397,781.929077 
	C1383.402588,797.574463 1377.638916,807.320251 1361.884399,808.749023 
	C1344.361694,810.338135 1326.658325,810.041870 1309.029907,810.286987 
	C1304.242676,810.353516 1299.370361,809.773132 1294.664185,808.844727 
	C1288.365967,807.602173 1284.341064,803.755188 1283.615845,797.035156 
	C1283.441040,795.415161 1283.112793,793.811707 1282.868530,792.284302 
	C1278.219116,792.284302 1273.783569,792.284302 1269.370605,792.284302 
	C1268.529541,807.503967 1275.247314,816.549805 1290.456421,819.898743 
	C1310.017822,824.206055 1329.912231,823.176025 1349.685547,822.219299 
	C1358.398926,821.797729 1367.268311,820.312134 1375.626099,817.827148 
	C1388.601318,813.969421 1394.437866,805.297058 1394.911987,791.850830 
	C1394.999756,789.355469 1395.005127,786.850708 1394.903076,784.356262 
	C1394.346313,770.751953 1388.682007,763.058411 1375.466187,760.222168 
	C1366.582031,758.315552 1357.369263,757.557373 1348.264893,757.149841 
	C1334.960693,756.554199 1321.621826,756.734131 1307.384644,756.466980 
M1158.500000,775.844604 
	C1164.333252,775.844604 1170.167969,775.762878 1175.999634,775.860840 
	C1190.318848,776.101318 1204.675415,775.873047 1218.942993,776.881653 
	C1231.274780,777.753540 1233.936157,781.419373 1234.044556,793.878662 
	C1234.119385,802.483826 1234.058838,811.090210 1234.058838,819.716614 
	C1239.076782,819.716614 1243.489502,819.716614 1247.885498,819.716614 
	C1247.885498,809.627686 1248.205444,799.808167 1247.791992,790.019592 
	C1247.408081,780.931580 1243.381592,774.063354 1233.859497,771.612732 
	C1233.747437,771.583801 1233.753418,771.095459 1233.651245,770.526550 
	C1245.365479,767.669495 1249.581177,759.074707 1250.155396,748.000488 
	C1250.430908,742.688538 1250.548462,737.339844 1250.263916,732.033203 
	C1249.594971,719.556519 1245.101929,713.606934 1232.858887,711.213684 
	C1223.276855,709.340698 1213.395630,708.345642 1203.628540,708.198120 
	C1176.968628,707.795227 1150.298828,708.044861 1123.632935,708.048157 
	C1122.520020,708.048340 1121.406982,708.170959 1120.281616,708.237183 
	C1120.281616,745.635864 1120.281616,782.697144 1120.281616,819.678101 
	C1124.993164,819.678101 1129.393311,819.678101 1134.176514,819.678101 
	C1134.176514,804.935608 1134.176514,790.511169 1134.176514,775.844604 
	C1142.211792,775.844604 1149.855835,775.844604 1158.500000,775.844604 
M1049.500000,808.186401 
	C1034.249756,808.186401 1018.999512,808.186401 1003.915039,808.186401 
	C1003.915039,794.686157 1003.915039,781.937683 1003.915039,768.730225 
	C1034.968140,768.730225 1065.707886,768.730225 1096.645752,768.730225 
	C1096.645752,764.679810 1096.645752,761.096436 1096.645752,756.952148 
	C1065.543701,756.952148 1034.657471,756.952148 1003.939270,756.952148 
	C1003.939270,744.317017 1003.939270,732.245605 1003.939270,719.769775 
	C1036.517456,719.769775 1068.756836,719.769775 1101.036743,719.769775 
	C1101.036743,715.636536 1101.036743,711.928772 1101.036743,708.268555 
	C1063.717896,708.268555 1026.783081,708.268555 989.634033,708.268555 
	C989.634033,745.568970 989.634033,782.630737 989.634033,819.707642 
	C1026.983032,819.707642 1064.040405,819.707642 1101.145874,819.707642 
	C1101.145874,815.797424 1101.145874,812.193481 1101.145874,808.186401 
	C1084.083252,808.186401 1067.291626,808.186401 1049.500000,808.186401 
M387.976929,774.473633 
	C387.976929,752.395386 387.976929,730.317139 387.976929,708.400085 
	C382.847839,708.400085 378.440552,708.400085 374.131531,708.400085 
	C374.131531,734.242188 373.731384,759.734924 374.253815,785.208801 
	C374.699341,806.934265 382.566254,817.495361 402.248016,820.325745 
	C428.342377,824.078308 454.744476,823.672668 480.928314,820.399597 
	C493.690399,818.804260 503.567780,812.267944 506.644562,798.786438 
	C508.004547,792.827148 508.774567,786.613220 508.851837,780.502747 
	C509.142487,757.516541 509.042419,734.525269 509.066803,711.535889 
	C509.067963,710.438110 508.859955,709.340149 508.763153,708.379150 
	C504.012604,708.379150 499.613983,708.379150 495.037476,708.379150 
	C495.037476,724.026550 495.149170,739.339600 495.002197,754.650146 
	C494.884003,766.964294 494.923706,779.309814 494.026733,791.578064 
	C493.143066,803.664185 487.814240,809.349915 475.606506,809.710693 
	C452.817566,810.384460 429.978027,810.405334 407.191681,809.683472 
	C394.948822,809.295593 390.152924,803.582031 388.897949,791.407349 
	C388.352631,786.117004 388.271240,780.778748 387.976929,774.473633 
M912.964050,787.390320 
	C909.040649,794.842224 905.117310,802.294128 900.871521,810.358276 
	C899.394470,807.649353 898.285645,805.686829 897.241516,803.690369 
	C881.218811,773.052979 865.227234,742.399231 849.121216,711.805725 
	C848.322144,710.287842 846.640442,708.359863 845.206665,708.212891 
	C840.680237,707.748779 836.076172,708.041687 830.895752,708.041687 
	C831.996765,710.138062 832.738037,711.588440 833.513489,713.020447 
	C850.533264,744.451050 868.077087,775.614990 884.275269,807.463318 
	C889.399536,817.538452 895.114502,822.021729 906.190674,820.158875 
	C909.102661,819.669128 910.797119,819.107483 912.261353,816.385864 
	C930.929260,781.689087 949.745667,747.072205 968.510193,712.427429 
	C969.197937,711.157593 969.742432,709.810120 970.567749,708.039429 
	C966.547729,708.039429 963.048279,708.321655 959.615356,707.964355 
	C955.774170,707.564514 953.779114,708.952271 951.992493,712.425903 
	C939.219971,737.257690 926.200317,761.962341 912.964050,787.390320 
M768.402344,708.042419 
	C728.676941,708.042419 688.951599,708.042419 649.299927,708.042419 
	C649.299927,712.312988 649.299927,715.907166 649.299927,719.969299 
	C667.947571,719.969299 686.329224,719.969299 705.086426,719.969299 
	C705.086426,753.507812 705.086426,786.567322 705.086426,819.745605 
	C709.872192,819.745605 714.269531,819.745605 719.042114,819.745605 
	C719.042114,786.434998 719.042114,753.372742 719.042114,719.850952 
	C737.802551,719.850952 756.189941,719.850952 774.649414,719.850952 
	C774.649414,715.672974 774.649414,711.964844 774.649414,708.042236 
	C772.668457,708.042236 771.020630,708.042236 768.402344,708.042419 
M545.972534,708.285461 
	C541.555664,708.285461 537.138733,708.285461 532.641418,708.285461 
	C532.641418,745.679382 532.641418,782.715271 532.641418,819.790405 
	C566.857178,819.790405 600.759399,819.790405 634.708618,819.790405 
	C634.708618,815.855896 634.708618,812.154419 634.708618,807.949829 
	C605.159729,807.949829 575.960144,807.949829 546.466370,807.949829 
	C546.466370,774.645020 546.466370,741.853394 545.972534,708.285461 
M798.113098,786.500000 
	C798.113098,797.582214 798.113098,808.664429 798.113098,819.700439 
	C803.152100,819.700439 807.563904,819.700439 811.890564,819.700439 
	C811.890564,782.384521 811.890564,745.368591 811.890564,708.368835 
	C807.182251,708.368835 802.792603,708.368835 798.113098,708.368835 
	C798.113098,734.297791 798.113098,759.898926 798.113098,786.500000 
M503.491241,857.448853 
	C503.431793,865.269775 503.303223,873.091431 503.389252,880.910767 
	C503.401855,882.054077 504.437103,883.186157 504.999176,884.323425 
	C505.568237,884.113892 506.137329,883.904358 506.706390,883.694824 
	C506.706390,876.230774 506.872986,868.761536 506.642853,861.304565 
	C506.508392,856.948120 509.059937,857.059937 512.119751,857.042786 
	C515.097107,857.026123 517.338806,857.166748 517.210510,861.161377 
	C516.996765,867.814087 517.085083,874.480286 517.231018,881.136719 
	C517.252380,882.107483 518.294312,883.055908 518.863953,884.014648 
	C519.404541,883.030090 520.388611,882.056274 520.412903,881.059143 
	C520.558960,875.069031 520.600098,869.070557 520.442200,863.081055 
	C520.342102,859.285950 520.647339,856.831482 525.697205,856.914124 
	C530.344543,856.990234 531.296021,858.700867 531.132935,862.836975 
	C530.858459,869.798035 531.057739,876.777832 531.057739,883.749756 
	C531.616394,883.938721 532.175049,884.127686 532.733643,884.316650 
	C533.248901,883.169617 534.183777,882.032043 534.209717,880.874023 
	C534.355103,874.384155 534.289429,867.889343 534.279541,861.396240 
	C534.270203,855.275208 533.136230,853.767639 527.049072,854.288635 
	C521.643250,854.751343 516.322815,854.191650 510.976868,854.300354 
	C508.617615,854.348267 506.288361,855.872925 503.491241,857.448853 
M1156.114380,876.386353 
	C1156.997314,878.824585 1154.177490,882.710693 1159.249878,884.381714 
	C1159.249878,878.492798 1159.248901,873.353638 1159.250000,868.214478 
	C1159.252686,857.038025 1159.253174,857.038086 1164.788818,857.054321 
	C1170.030273,857.069702 1170.030273,857.069641 1170.030396,867.928406 
	C1170.030518,872.423584 1169.935303,876.922546 1170.109497,881.410950 
	C1170.145874,882.350159 1171.176636,883.250732 1171.749146,884.169128 
	C1172.206055,883.955444 1172.662842,883.741760 1173.119629,883.528076 
	C1173.119629,876.395508 1173.374390,869.250549 1173.027832,862.134827 
	C1172.805664,857.572083 1174.904663,856.949280 1178.722778,856.952942 
	C1182.433105,856.956543 1184.250244,857.791260 1184.056885,861.963684 
	C1183.764404,868.276672 1183.910767,874.614807 1184.049683,880.938354 
	C1184.073364,882.016724 1184.991699,883.075378 1185.496704,884.143188 
	C1186.003174,883.932617 1186.509644,883.722046 1187.016113,883.511475 
	C1187.016113,875.877747 1186.891235,868.241211 1187.061768,860.611328 
	C1187.168335,855.842590 1184.965820,853.822754 1180.422607,854.253113 
	C1177.269287,854.551758 1174.147095,855.503723 1171.007080,855.522095 
	C1168.153442,855.538818 1165.310059,854.501892 1162.434570,854.265198 
	C1158.121948,853.910095 1155.994751,855.997803 1156.091309,860.435852 
	C1156.200073,865.428101 1156.115112,870.424622 1156.114380,876.386353 
M1297.294434,878.025757 
	C1297.030029,885.197144 1302.435547,883.913086 1306.146118,884.099609 
	C1307.135864,886.071899 1307.921997,887.638306 1308.708008,889.204773 
	C1309.628906,887.574036 1310.549805,885.943298 1311.523071,884.219727 
	C1320.347412,883.795410 1320.347412,883.795410 1320.346436,874.740295 
	C1320.345947,869.740417 1320.317139,864.740417 1320.354370,859.740784 
	C1320.381836,856.052734 1318.638550,854.169006 1314.925537,854.165894 
	C1311.259033,854.162781 1307.588257,854.272644 1303.927002,854.134583 
	C1299.335449,853.961548 1297.161499,855.942871 1297.267334,860.620850 
	C1297.391602,866.117859 1297.295532,871.619812 1297.294434,878.025757 
M807.375610,884.059814 
	C817.372375,884.765686 817.625000,882.704224 816.205139,867.585815 
	C807.994385,866.180115 805.440063,866.728455 805.465210,870.324524 
	C808.039917,870.324524 810.616272,870.324524 813.327087,870.324524 
	C813.327087,873.084961 813.762817,875.532898 813.168091,877.697754 
	C812.795288,879.054810 810.713989,881.071289 809.674133,880.918640 
	C805.437256,880.296936 800.453857,883.565002 796.998291,878.776489 
	C796.757507,878.442810 796.936707,877.799377 796.936523,877.299988 
	C796.933960,871.970520 796.975586,866.640503 796.915649,861.311707 
	C796.888367,858.888977 797.287903,856.500427 800.299316,857.193237 
	C804.609131,858.184692 809.894958,854.192871 813.294189,859.691345 
	C814.006775,860.844055 814.730286,861.990112 815.448792,863.139221 
	C815.879822,861.719849 817.109436,859.747559 816.584900,858.989929 
	C815.268555,857.088745 813.335815,854.730530 811.329407,854.377136 
	C807.291199,853.665710 803.038391,854.109375 798.876099,854.184875 
	C795.494019,854.246094 793.692322,856.001404 793.697449,859.465515 
	C793.703308,863.462646 793.730042,867.460083 793.691467,871.456848 
	C793.561096,884.969482 792.997070,884.196655 807.375610,884.059814 
M962.717896,877.302673 
	C962.720825,883.605164 962.720825,883.605164 965.941711,883.368042 
	C965.941711,881.738403 965.941711,880.090332 965.941711,878.442200 
	C965.941711,876.685120 965.941711,874.928040 965.941711,872.902100 
	C968.196838,872.902100 969.841919,872.812317 971.473694,872.921082 
	C974.723022,873.137756 978.486450,872.584351 981.010193,874.081177 
	C982.472656,874.948486 981.849854,879.203247 982.352356,881.898682 
	C982.495972,882.669006 983.293152,883.317566 983.790710,884.021973 
	C984.428406,883.291382 985.649109,882.524170 985.605957,881.836365 
	C985.381958,878.266968 984.835327,874.717957 984.286743,870.225037 
	C987.435791,867.291565 985.659912,862.231323 985.312378,857.646606 
	C985.216003,856.374939 982.305420,854.452576 980.576721,854.326538 
	C974.820679,853.906738 969.015015,854.167725 962.717163,854.167725 
	C962.717163,861.791565 962.717163,869.068359 962.717896,877.302673 
M352.286560,873.383911 
	C352.286560,874.383789 352.283936,875.383667 352.287018,876.383545 
	C352.308167,883.203613 353.175171,884.055542 360.102753,884.059692 
	C363.435669,884.061707 366.769012,884.027222 370.101379,884.069519 
	C373.597931,884.113892 375.330841,882.390930 375.343262,878.942383 
	C375.366669,872.443237 375.365570,865.943970 375.343903,859.444824 
	C375.332458,856.012085 373.527466,854.233093 370.131744,854.180237 
	C366.133179,854.117859 362.132751,854.190430 358.133514,854.158264 
	C354.234406,854.126892 352.290039,856.021118 352.290070,859.918335 
	C352.290070,864.084473 352.287842,868.250610 352.286560,873.383911 
M694.782288,855.798523 
	C689.806702,855.381409 684.833984,854.785645 679.853088,854.707153 
	C678.925171,854.692505 677.194946,856.731750 677.159668,857.864380 
	C677.042480,861.624878 677.529602,865.404175 677.784973,869.176270 
	C678.287292,869.180359 678.789612,869.184509 679.291931,869.188599 
	C679.051880,869.572388 678.644287,869.937012 678.597900,870.343018 
	C678.165588,874.126526 677.150757,878.028625 677.775330,881.642151 
	C677.979431,882.823059 682.457336,883.445618 685.050354,883.993835 
	C689.691772,884.975037 694.367676,881.969543 699.075134,883.949036 
	C699.379700,884.077026 700.010559,883.429016 701.769653,882.375183 
	C693.006897,881.030945 696.996094,875.354370 696.111694,871.372559 
	C697.580444,870.636230 698.841187,870.004150 700.101929,869.372070 
	C699.998779,868.893677 699.895569,868.415344 699.792419,867.936951 
	C694.913208,867.936951 690.026733,868.087524 685.158875,867.852722 
	C683.527283,867.773926 680.764221,866.972168 680.561401,866.050964 
	C679.985291,863.434753 679.585632,858.714478 680.697205,858.193115 
	C683.601257,856.831299 687.365906,856.974976 690.746399,857.183411 
	C691.625061,857.237549 692.327942,859.747437 693.159851,861.099670 
	C693.676941,861.940186 694.284729,862.724854 694.851868,863.534607 
	C695.326050,863.349365 695.800293,863.164062 696.274475,862.978821 
	C695.967834,860.789185 695.661133,858.599609 694.782288,855.798523 
M170.752640,875.400574 
	C170.752640,878.187927 170.752640,880.975342 170.752640,884.034912 
	C176.349854,884.034912 181.490860,884.119141 186.627502,884.005432 
	C190.085632,883.928894 193.775284,880.145142 193.851334,876.617065 
	C193.958740,871.634277 193.959000,866.645752 193.849564,861.663025 
	C193.775040,858.269653 189.955109,854.323792 186.606003,854.237976 
	C181.486893,854.106812 176.361954,854.203491 170.752670,854.203491 
	C170.752670,861.182190 170.752670,867.803406 170.752640,875.400574 
M1241.419678,883.917114 
	C1241.733154,880.362549 1242.046631,876.808044 1242.395630,872.849915 
	C1244.739258,872.849915 1247.019897,872.849731 1249.300415,872.849854 
	C1258.084839,872.850220 1258.033936,872.855042 1258.819580,881.347656 
	C1258.914673,882.377014 1259.916382,883.322571 1260.497925,884.306885 
	C1261.131226,884.054626 1261.764526,883.802307 1262.397827,883.550049 
	C1261.747437,879.392944 1261.096924,875.235901 1260.335449,870.369080 
	C1263.574829,867.236816 1261.761597,862.189941 1261.535400,857.593628 
	C1261.476929,856.404663 1258.783203,854.486877 1257.203857,854.384277 
	C1251.296997,854.000488 1245.350098,854.230713 1239.007324,854.230713 
	C1239.007324,863.988770 1238.984253,873.249023 1239.070435,882.508118 
	C1239.075073,883.008240 1239.994995,883.499878 1241.419678,883.917114 
M1116.714844,862.632202 
	C1116.714722,867.959412 1116.751709,873.286987 1116.701660,878.613708 
	C1116.666870,882.304321 1118.337769,884.133179 1122.099243,884.075012 
	C1126.260132,884.010681 1130.513550,884.565369 1134.545288,883.841003 
	C1136.480103,883.493408 1139.343384,880.920105 1139.470703,879.184753 
	C1140.017700,871.733582 1139.758911,864.218262 1139.629028,856.729187 
	C1139.614502,855.890076 1138.554443,855.069092 1137.979248,854.239807 
	C1137.418213,855.081970 1136.405640,855.906433 1136.371826,856.769226 
	C1136.202515,861.091064 1136.287720,865.422913 1136.286865,869.751282 
	C1136.284912,881.320923 1136.285278,881.167969 1124.632446,881.196350 
	C1120.832397,881.205566 1119.736938,879.933105 1119.875244,876.283203 
	C1120.121094,869.800049 1119.999268,863.299561 1119.871338,856.809509 
	C1119.854248,855.942993 1118.903442,855.094849 1118.385132,854.238159 
	C1117.830078,855.056030 1116.935669,855.819458 1116.793945,856.703613 
	C1116.533691,858.326904 1116.716675,860.021301 1116.714844,862.632202 
M391.309631,874.433350 
	C391.313782,876.921387 391.207306,879.417664 391.389709,881.892517 
	C391.444214,882.631592 392.307281,883.311096 392.799927,884.017883 
	C393.432159,883.284973 394.551147,882.588806 394.609741,881.812561 
	C394.827576,878.927246 394.696625,876.015686 394.696625,872.900330 
	C399.913574,872.900330 404.442078,873.351624 408.805176,872.698242 
	C410.801575,872.399231 414.107056,869.790771 413.997437,868.462524 
	C413.600189,863.648804 417.277527,857.586365 410.658142,854.240662 
	C410.521454,854.171631 410.330872,854.198792 410.165436,854.198730 
	C404.076996,854.196899 397.988556,854.197205 391.309723,854.197205 
	C391.309723,860.940430 391.309723,867.197510 391.309631,874.433350 
M442.363220,854.163818 
	C438.274933,854.163818 434.186646,854.163818 430.041656,854.163818 
	C430.041656,864.440186 430.041656,874.127319 430.041656,883.814514 
	C430.564362,883.934143 431.087036,884.053833 431.609741,884.173462 
	C434.673248,881.270630 431.662384,876.589478 433.659607,872.901855 
	C437.874725,872.901855 442.345673,873.165588 446.759186,872.777222 
	C448.628448,872.612732 451.160980,871.552734 452.048553,870.086487 
	C456.515839,862.706360 451.675385,854.164551 442.363220,854.163818 
M1034.420410,857.068115 
	C1037.087646,857.068115 1039.754883,857.068115 1043.307373,857.068115 
	C1040.353149,853.921387 1032.072388,853.330566 1022.028748,854.636597 
	C1022.028748,864.336792 1022.028748,874.061584 1022.028748,883.610840 
	C1028.992676,883.610840 1035.673218,883.610840 1042.353882,883.610840 
	C1042.392456,883.177185 1042.431030,882.743530 1042.469604,882.309937 
	C1037.032349,879.455444 1030.652344,882.451233 1025.166626,880.683228 
	C1025.166626,877.299744 1025.166626,874.196045 1025.166626,871.188354 
	C1029.453857,869.561584 1034.390991,872.348938 1038.150757,869.496094 
	C1038.089111,869.000427 1038.027588,868.504761 1037.965942,868.009094 
	C1033.738037,868.009094 1029.510132,868.009094 1025.230957,868.009094 
	C1025.230957,864.122925 1025.230957,860.725464 1025.230957,857.068115 
	C1028.187134,857.068115 1030.825439,857.068115 1034.420410,857.068115 
M1375.752563,864.558594 
	C1375.752563,870.977966 1375.752563,877.397400 1375.752563,883.586670 
	C1383.029419,883.586670 1389.697388,883.586670 1396.365356,883.586670 
	C1396.401733,883.148438 1396.438110,882.710144 1396.474487,882.271912 
	C1391.011230,879.481995 1384.629028,882.446716 1379.177979,880.669189 
	C1379.177979,877.267334 1379.177979,874.160645 1379.177979,871.162170 
	C1383.489502,869.646912 1388.369385,872.208496 1392.165649,869.603516 
	C1392.093384,869.059814 1392.021240,868.516113 1391.948975,867.972412 
	C1387.721069,867.972412 1383.493042,867.972412 1379.245117,867.972412 
	C1379.245117,864.093140 1379.245117,860.698059 1379.245117,856.889038 
	C1385.155151,856.889038 1390.735596,856.889038 1396.544434,856.889038 
	C1394.872192,853.962891 1386.045166,853.179993 1375.752686,854.746094 
	C1375.752686,857.641724 1375.752686,860.613953 1375.752563,864.558594 
M1206.975708,866.642517 
	C1206.975708,863.546875 1206.975708,860.451233 1206.975708,856.725037 
	C1213.127197,856.725037 1218.764282,856.725037 1224.943726,856.725037 
	C1222.375977,853.917419 1214.494751,853.335388 1204.009521,854.612793 
	C1204.009521,864.315002 1204.009521,874.044678 1204.009521,883.632812 
	C1210.964600,883.632812 1217.654419,883.632812 1224.344360,883.632812 
	C1224.386719,883.194885 1224.429199,882.756958 1224.471558,882.319031 
	C1219.057251,879.410339 1212.672485,882.491699 1207.146973,880.651794 
	C1207.146973,877.337341 1207.146973,874.236023 1207.146973,871.175049 
	C1219.441895,869.563232 1219.441895,869.563232 1219.832275,867.591919 
	C1215.591553,867.591919 1211.454590,867.591919 1206.975708,866.642517 
M229.405975,854.261108 
	C222.840714,854.261108 216.275436,854.261108 209.317841,854.261108 
	C209.317841,863.357727 209.308441,871.805115 209.329086,880.252502 
	C209.331848,881.379028 209.487045,882.505249 209.584229,883.799133 
	C216.538483,883.799133 223.246048,883.799133 229.953613,883.799133 
	C230.042603,883.236633 230.131607,882.674194 230.220612,882.111694 
	C224.804306,879.582031 218.390350,882.350342 213.042465,880.617310 
	C213.042465,877.233887 213.042465,874.148743 213.042465,871.120178 
	C225.311218,869.878723 225.311218,869.878723 225.504333,867.687073 
	C221.374588,867.687073 217.269989,867.687073 212.944427,867.687073 
	C212.944427,864.117737 212.944427,860.859070 212.944427,857.093445 
	C217.708694,857.093445 222.325119,857.225952 226.922958,856.992249 
	C227.959946,856.939575 228.932068,855.610840 229.405975,854.261108 
M846.321533,884.060120 
	C848.578247,884.060120 850.834961,884.060120 853.091614,884.060120 
	C853.174438,883.332642 853.257263,882.605164 853.340088,881.877686 
	C847.827515,879.943909 841.632324,882.023987 835.958252,880.737183 
	C835.958252,877.424561 835.958252,874.337341 835.958252,870.748840 
	C838.636047,870.748840 841.091187,870.751099 843.546387,870.748352 
	C848.034241,870.743408 848.034241,870.742188 848.667236,867.848755 
	C844.488159,867.848755 840.372009,867.848755 836.052246,867.848755 
	C836.052246,864.154663 836.052246,860.775696 836.052246,856.929321 
	C841.952332,856.929321 847.521729,856.929321 853.322083,856.929321 
	C851.727417,853.887085 843.230530,853.115417 832.635010,854.678589 
	C832.635010,864.341553 832.635010,874.053589 832.635010,884.060059 
	C837.078247,884.060059 841.226807,884.060059 846.321533,884.060120 
M294.494263,884.060120 
	C297.948944,884.060120 301.403625,884.060120 304.933136,884.060120 
	C304.989960,883.184814 305.066711,882.314880 305.043793,882.312256 
	C299.338989,881.656433 293.627258,881.061279 288.019104,880.475159 
	C288.019104,877.316345 288.019104,874.221130 288.019104,870.749634 
	C290.782990,870.749634 293.247101,870.753174 295.711212,870.748901 
	C300.193542,870.741150 300.193542,870.739197 300.549561,867.705261 
	C296.402466,867.705261 292.291504,867.705261 287.950470,867.705261 
	C287.950470,864.127808 287.950470,860.863159 287.950470,856.948853 
	C293.767578,856.948853 299.451904,856.948853 305.499298,856.948853 
	C303.576202,853.922791 293.477234,853.146790 284.682617,854.781067 
	C284.682617,864.443848 284.682617,874.137939 284.682617,884.060120 
	C287.880676,884.060120 290.703094,884.060120 294.494263,884.060120 
M927.096375,876.419434 
	C927.096375,878.850952 927.096375,881.282471 927.096375,883.739807 
	C934.417419,883.739807 941.140564,883.739807 947.863708,883.739807 
	C947.942322,883.184143 948.020935,882.628418 948.099548,882.072754 
	C942.519531,879.812561 936.118103,882.191101 930.571533,880.716675 
	C930.571533,877.279480 930.571533,874.199463 930.571533,870.708496 
	C933.165649,870.708496 935.473328,870.806885 937.768372,870.679199 
	C939.816711,870.565186 941.851196,870.201538 943.891785,869.948059 
	C943.820129,869.253967 943.748535,868.559814 943.676941,867.865723 
	C939.328430,867.865723 934.979919,867.865723 930.481384,867.865723 
	C930.481384,863.900391 930.481384,860.654541 930.481384,856.912598 
	C936.415649,856.912598 942.142273,856.912598 948.147522,856.912598 
	C946.353699,853.911133 934.104675,853.077698 927.325317,855.018921 
	C927.257385,855.343933 927.131165,855.668823 927.130127,855.994019 
	C927.110168,862.476318 927.104736,868.958618 927.096375,876.419434 
M560.571045,857.068481 
	C564.285156,857.068481 567.999268,857.068481 572.330627,857.068481 
	C569.887024,853.947693 559.367310,853.207275 551.342346,854.802429 
	C551.342346,864.519653 551.342346,874.225891 551.342346,883.571655 
	C558.394348,883.571655 565.068420,883.571655 571.742493,883.571655 
	C571.774841,883.124634 571.807251,882.677612 571.839661,882.230591 
	C566.298523,879.602295 559.962524,882.313110 554.396240,880.747620 
	C554.396240,877.286560 554.396240,874.069397 554.396240,871.029236 
	C559.047119,870.712158 563.325195,870.420410 567.603210,870.128723 
	C567.547974,869.462585 567.492737,868.796387 567.437500,868.130249 
	C563.065186,868.130249 558.692871,868.130249 554.355347,868.130249 
	C554.355347,864.103455 554.355347,860.693909 554.355347,857.068481 
	C556.321167,857.068481 557.966614,857.068481 560.571045,857.068481 
M480.454559,857.068848 
	C483.198975,857.068848 485.943420,857.068848 488.687836,857.068848 
	C488.732635,856.173340 488.777466,855.277832 488.822266,854.382324 
	C482.055450,854.001038 475.236267,854.275635 468.302002,854.215210 
	C468.302002,864.440552 468.302002,874.140076 468.302002,883.634277 
	C475.328918,883.634277 482.020874,883.634277 488.712830,883.634277 
	C488.788666,883.025024 488.864502,882.415771 488.940338,881.806519 
	C486.185089,881.585754 483.433319,881.268799 480.673706,881.169800 
	C477.572723,881.058655 474.464661,881.144287 471.343964,881.144287 
	C471.343964,877.364197 471.343964,874.128967 471.343964,870.970825 
	C475.969299,870.716125 480.287018,870.478394 484.604706,870.240662 
	C484.547455,869.567566 484.490204,868.894470 484.432983,868.221375 
	C480.089722,868.221375 475.746429,868.221375 471.316528,868.221375 
	C471.316528,864.179199 471.316528,860.773682 471.316528,857.068726 
	C474.221497,857.068726 476.856659,857.068726 480.454559,857.068848 
M1336.233765,880.745056 
	C1337.920166,881.837524 1339.525391,883.680420 1341.308838,883.872925 
	C1345.586426,884.334900 1350.014893,884.459717 1354.243530,883.812622 
	C1356.017090,883.541260 1358.702637,881.051697 1358.805054,879.433411 
	C1359.287598,871.807556 1359.068604,864.133362 1358.947754,856.478821 
	C1358.933960,855.613525 1357.963013,854.763367 1357.436035,853.906128 
	C1356.951294,854.049805 1356.466431,854.193481 1355.981689,854.337097 
	C1355.981689,859.266602 1355.981689,864.196045 1355.981689,869.125488 
	C1355.981689,881.664612 1355.984375,881.560669 1343.467529,881.232727 
	C1340.165283,881.146179 1339.122925,879.951416 1339.202515,876.780823 
	C1339.365234,870.293579 1339.318726,863.797791 1339.177368,857.309570 
	C1339.155273,856.294678 1338.180298,855.300537 1337.645874,854.296814 
	C1337.135132,855.328247 1336.199097,856.352783 1336.182007,857.392334 
	C1336.059326,864.880249 1336.123047,872.371155 1336.233765,880.745056 
M1100.019287,880.279419 
	C1100.019653,873.454712 1099.992798,866.629761 1100.031372,859.805298 
	C1100.052246,856.126099 1098.336060,854.229736 1094.624878,854.224731 
	C1090.463501,854.219177 1086.205811,853.705688 1082.182495,854.451294 
	C1080.265015,854.806702 1077.460571,857.480469 1077.347168,859.250610 
	C1076.828003,867.357544 1077.119141,875.516235 1077.119141,883.656372 
	C1077.575439,883.867065 1078.031738,884.077759 1078.488159,884.288452 
	C1079.073608,883.315735 1080.118530,882.364197 1080.164673,881.366577 
	C1080.356079,877.213928 1080.191406,873.046631 1080.257690,868.886230 
	C1080.478760,855.036621 1077.983154,857.329041 1092.605347,857.013855 
	C1095.809814,856.944824 1097.104248,858.046753 1097.024536,861.333496 
	C1096.863159,867.987854 1096.928345,874.649658 1097.036499,881.306213 
	C1097.051025,882.203369 1097.853516,883.087708 1098.291138,883.977966 
	C1098.867065,883.062012 1099.442871,882.146057 1100.019287,880.279419 
M874.847595,854.221130 
	C871.375183,854.000244 868.191895,854.668335 868.059937,858.844116 
	C867.818176,866.495239 867.955505,874.159790 868.048706,881.817444 
	C868.057617,882.542969 868.873779,883.258606 869.315125,883.978882 
	C869.883057,883.221619 870.913086,882.481628 870.942200,881.704224 
	C871.103821,877.381348 870.957581,873.048218 871.036316,868.720764 
	C871.285706,855.020996 868.692017,857.380066 882.991333,856.995422 
	C886.819885,856.892456 887.894409,858.440247 887.805603,862.007141 
	C887.625183,869.254028 887.751648,876.508545 887.751648,883.759949 
	C888.292847,883.933533 888.833984,884.107117 889.375183,884.280640 
	C889.881409,883.223267 890.806824,882.173462 890.826111,881.107300 
	C890.955566,873.950439 890.930603,866.789673 890.875610,859.630859 
	C890.847656,855.995178 888.905945,854.195007 885.257324,854.218384 
	C882.094055,854.238708 878.930542,854.221985 874.847595,854.221130 
M607.774292,855.918152 
	C601.495422,855.501343 595.218445,854.920410 588.935608,854.848450 
	C588.014954,854.837952 586.300598,857.223938 586.256836,858.544250 
	C585.997925,866.364075 586.061951,874.197754 586.218811,882.022766 
	C586.233765,882.771057 587.634216,883.491577 589.249756,885.056396 
	C589.249756,878.542480 589.196838,873.551270 589.260010,868.561462 
	C589.429993,855.134033 587.300903,857.373535 600.946167,856.982788 
	C604.960083,856.867920 606.200378,858.290283 606.049927,862.177063 
	C605.799011,868.663086 605.927795,875.167175 606.058594,881.660339 
	C606.074463,882.445862 607.092712,883.211182 607.646423,883.985901 
	C608.099243,883.447754 608.953308,882.903381 608.945007,882.372498 
	C608.810242,873.771729 608.566101,865.172668 607.774292,855.918152 
M756.497925,883.996521 
	C757.004822,883.003601 757.906006,882.027466 757.949097,881.014832 
	C758.118835,877.026245 757.952576,873.024902 758.031189,869.030579 
	C758.308044,854.961426 755.529785,857.370178 770.176208,857.004517 
	C773.706299,856.916443 774.874146,858.278992 774.799438,861.690674 
	C774.639465,868.997437 774.750427,876.310120 774.750427,883.620422 
	C775.189758,883.845093 775.629089,884.069763 776.068420,884.294434 
	C776.676758,883.338745 777.793091,882.393372 777.812561,881.425781 
	C777.959961,874.103088 778.208740,866.752747 777.671509,859.466614 
	C777.535217,857.618103 774.884583,854.780457 773.038391,854.467651 
	C768.668640,853.727356 764.034912,853.835083 759.619995,854.430298 
	C757.920654,854.659363 755.247009,857.103760 755.202820,858.603210 
	C754.954529,867.028503 755.372986,875.473450 756.497925,883.996521 
M244.970032,873.921021 
	C246.486771,876.160645 248.043472,878.374390 249.511307,880.645569 
	C252.026779,884.537964 256.531952,885.507629 259.496307,883.598816 
	C263.041290,881.316101 266.468384,877.196289 267.581635,873.211548 
	C268.960663,868.275330 267.994324,862.658813 267.843292,857.341797 
	C267.813873,856.307007 266.877747,855.297974 266.359833,854.277100 
	C265.817169,855.273376 264.838715,856.255432 264.805603,857.268433 
	C264.642609,862.251892 264.827606,867.245911 264.702301,872.231567 
	C264.579193,877.128052 257.624237,883.013977 254.368530,880.749084 
	C251.163361,878.519409 247.476837,876.150696 247.944351,870.969421 
	C248.361099,866.350952 248.101166,861.663086 247.971832,857.010559 
	C247.946198,856.088379 247.157608,855.187378 246.720856,854.276611 
	C246.137100,855.206543 245.077591,856.121887 245.048447,857.068970 
	C244.884811,862.385254 244.969482,867.709167 244.970032,873.921021 
M634.965942,876.397217 
	C634.965942,869.999573 634.965942,863.601990 634.965942,857.266479 
	C638.636108,857.070679 641.617188,856.911682 645.222412,856.719360 
	C642.777954,854.295288 629.562866,853.115479 623.785889,854.307739 
	C623.034912,854.462769 622.459778,855.470398 620.783325,857.034912 
	C625.391907,857.034912 628.489807,857.034912 631.833252,857.034912 
	C631.833252,865.246216 631.772644,873.034851 631.898438,880.820496 
	C631.917358,881.989929 632.807922,883.145203 633.295227,884.307068 
	C633.852112,884.128845 634.409058,883.950623 634.965942,883.772461 
	C634.965942,881.636169 634.965942,879.499878 634.965942,876.397217 
M322.910706,872.467041 
	C322.910156,867.315430 322.976593,862.162048 322.847107,857.013733 
	C322.823853,856.088928 321.992584,855.184570 321.534363,854.270752 
	C320.942169,855.045410 319.845367,855.813354 319.834961,856.595825 
	C319.714325,865.666443 319.757843,874.739258 319.757843,883.599243 
	C327.021576,883.599243 333.690033,883.599243 340.358459,883.599243 
	C340.395996,883.163757 340.433563,882.728333 340.471100,882.292847 
	C335.026642,879.479980 328.658997,882.431152 322.910706,880.605286 
	C322.910706,878.086426 322.910706,875.770142 322.910706,872.467041 
M1281.269165,874.417969 
	C1281.266602,868.464661 1281.329590,862.509766 1281.181641,856.560120 
	C1281.162476,855.784851 1280.057495,855.036682 1279.455566,854.276062 
	C1279.005249,855.027527 1278.170776,855.775146 1278.163330,856.531006 
	C1278.072754,865.603638 1278.104736,874.677490 1278.104736,883.751038 
	C1278.467285,883.946289 1278.829956,884.141541 1279.192505,884.336792 
	C1279.883667,883.503357 1281.042847,882.736084 1281.171753,881.823120 
	C1281.469849,879.715332 1281.268188,877.536804 1281.269165,874.417969 
M735.096313,868.504761 
	C735.097107,872.836853 734.985046,877.174255 735.186157,881.497009 
	C735.230774,882.457031 736.379944,883.365601 737.020569,884.297852 
	C737.435059,884.060974 737.849487,883.824097 738.263977,883.587219 
	C738.263977,874.763611 738.318237,865.939148 738.186035,857.117432 
	C738.171692,856.161255 737.078979,855.221252 736.486511,854.273682 
	C736.023560,855.187866 735.203918,856.085693 735.161255,857.019104 
	C735.001892,860.510864 735.096802,864.014160 735.096313,868.504761 
M1001.762268,856.327576 
	C1001.762268,865.427063 1001.762268,874.526550 1001.762268,885.274231 
	C1003.438843,883.508057 1004.796509,882.746216 1004.810791,881.959961 
	C1004.964172,873.510864 1004.974731,865.056946 1004.861694,856.606567 
	C1004.829224,854.176636 1004.589111,854.179871 1001.762268,856.327576 
M908.560425,884.016663 
	C909.270203,883.363159 910.586487,882.719788 910.597595,882.054565 
	C910.739075,873.588135 910.742004,865.117920 910.616943,856.651062 
	C910.604980,855.838440 909.500610,855.042053 908.903320,854.238098 
	C908.374695,855.111084 907.386169,855.985291 907.388428,856.856812 
	C907.411682,865.798889 907.595703,874.740601 908.560425,884.016663 
z"/>
<path fill="#052651" opacity="1.000000" stroke="none" 
	d="
M1.000000,257.000000 
	C1.000000,171.683914 1.000000,86.367836 1.000000,1.025879 
	C521.877380,1.025879 1042.754761,1.025879 1564.000000,1.025879 
	C1564.000000,86.026512 1564.000000,171.053558 1563.544189,256.525879 
	C1043.558472,256.970154 524.028564,256.969116 4.498619,256.969421 
	C3.332412,256.969421 2.166206,256.989380 1.000000,257.000000 
z"/>
<path fill="#052651" opacity="1.000000" stroke="none" 
	d="
M1564.000000,1309.000000 
	C1564.000000,1393.982788 1564.000000,1478.965576 1564.000000,1563.974121 
	C1043.122681,1563.974121 522.245239,1563.974121 1.000000,1563.974121 
	C1.000000,1479.306885 1.000000,1394.613159 1.446276,1309.316162 
	C3.058485,1308.696167 4.224417,1308.664795 5.390349,1308.664795 
	C523.275940,1308.662720 1041.161499,1308.662354 1559.047119,1308.676392 
	C1560.698120,1308.676514 1562.348999,1308.887451 1564.000000,1309.000000 
z"/>
<path fill="#F1F3F5" opacity="1.000000" stroke="none" 
	d="
M1564.000000,1308.535522 
	C1562.348999,1308.887451 1560.698120,1308.676514 1559.047119,1308.676392 
	C1041.161499,1308.662354 523.275940,1308.662720 5.390349,1308.664795 
	C4.224417,1308.664795 3.058485,1308.696167 1.446276,1308.856445 
	C1.000000,1303.976318 1.000000,1298.952515 0.999998,1293.464355 
	C2.650876,1293.112671 4.301753,1293.323730 5.952636,1293.323730 
	C523.838196,1293.338013 1041.723755,1293.337769 1559.609253,1293.335693 
	C1560.775391,1293.335693 1561.941406,1293.304321 1563.553711,1293.143799 
	C1564.000000,1298.023682 1564.000000,1303.047485 1564.000000,1308.535522 
z"/>
<path fill="#FEFFFF" opacity="1.000000" stroke="none" 
	d="
M1.000000,257.455872 
	C2.166206,256.989380 3.332412,256.969421 4.498619,256.969421 
	C524.028564,256.969116 1043.558472,256.970154 1563.544189,256.985596 
	C1564.000000,261.696106 1564.000000,266.392181 1564.000000,271.544128 
	C1562.504150,272.053772 1561.008423,272.154663 1559.512573,272.154694 
	C1040.809204,272.161438 522.105774,272.161285 3.402336,272.160553 
	C2.902497,272.160553 2.402658,272.149933 1.451409,272.072144 
	C1.000000,267.303894 1.000000,262.607819 1.000000,257.455872 
z"/>
<path fill="#F5F7F9" opacity="1.000000" stroke="none" 
	d="
M188.597656,797.000122 
	C188.597641,804.806152 188.597641,812.112122 188.597641,819.711060 
	C183.817917,819.711060 179.396759,819.711060 174.655273,819.711060 
	C174.655273,782.700867 174.655273,745.634583 174.655273,708.036072 
	C181.904144,708.036072 189.025574,707.831970 196.116653,708.204956 
	C197.567383,708.281311 199.239594,710.297119 200.244141,711.797546 
	C220.059418,741.394714 239.789978,771.048523 259.543213,800.687195 
	C260.541473,802.185120 261.588409,803.650513 262.944031,805.609985 
	C264.192993,803.868591 265.254791,802.477783 266.223206,801.024719 
	C286.069611,771.247559 305.945831,741.490051 325.673950,711.634644 
	C327.446503,708.952148 329.191589,707.778870 332.457275,707.945984 
	C338.266357,708.243103 344.101562,708.029358 350.268677,708.029358 
	C350.268677,745.331421 350.268677,782.395813 350.268677,819.735474 
	C345.794678,819.735474 341.372284,819.735474 336.317749,819.735474 
	C336.317749,786.903198 336.317749,754.076111 336.317749,721.249023 
	C335.992218,721.168335 335.666656,721.087646 335.341125,721.006958 
	C334.453156,722.312622 333.547455,723.606628 332.679840,724.925598 
	C312.742188,755.236145 292.763672,785.519958 272.945404,815.908386 
	C271.006561,818.881287 268.970612,819.823669 265.438446,820.194946 
	C258.232269,820.952454 254.283142,818.125305 250.413849,812.085388 
	C231.383316,782.378662 211.794998,753.029175 192.395370,723.559021 
	C191.524979,722.236816 190.574112,720.967529 188.597656,719.899292 
	C188.597656,745.432861 188.597656,770.966492 188.597656,797.000122 
z"/>
<path fill="#F8FAFC" opacity="1.000000" stroke="none" 
	d="
M1307.841187,756.525269 
	C1321.621826,756.734131 1334.960693,756.554199 1348.264893,757.149841 
	C1357.369263,757.557373 1366.582031,758.315552 1375.466187,760.222168 
	C1388.682007,763.058411 1394.346313,770.751953 1394.903076,784.356262 
	C1395.005127,786.850708 1394.999756,789.355469 1394.911987,791.850830 
	C1394.437866,805.297058 1388.601318,813.969421 1375.626099,817.827148 
	C1367.268311,820.312134 1358.398926,821.797729 1349.685547,822.219299 
	C1329.912231,823.176025 1310.017822,824.206055 1290.456421,819.898743 
	C1275.247314,816.549805 1268.529541,807.503967 1269.370605,792.284302 
	C1273.783569,792.284302 1278.219116,792.284302 1282.868530,792.284302 
	C1283.112793,793.811707 1283.441040,795.415161 1283.615845,797.035156 
	C1284.341064,803.755188 1288.365967,807.602173 1294.664185,808.844727 
	C1299.370361,809.773132 1304.242676,810.353516 1309.029907,810.286987 
	C1326.658325,810.041870 1344.361694,810.338135 1361.884399,808.749023 
	C1377.638916,807.320251 1383.402588,797.574463 1380.207397,781.929077 
	C1379.169067,776.844360 1376.423950,773.182922 1371.553711,771.989807 
	C1365.622314,770.536560 1359.506226,769.338074 1353.426392,769.086670 
	C1337.123413,768.412354 1320.769897,768.753113 1304.492432,767.766113 
	C1296.982910,767.310791 1289.414795,765.272217 1282.218994,762.901978 
	C1274.909790,760.494385 1270.515625,754.767151 1269.720337,746.911804 
	C1269.252563,742.292480 1268.990723,737.596130 1269.255981,732.969971 
	C1269.889038,721.931335 1275.919800,714.402222 1286.227661,711.278320 
	C1294.436035,708.790710 1303.082275,706.726013 1311.593628,706.472046 
	C1329.542114,705.936279 1347.532104,706.603210 1365.498779,707.037292 
	C1369.097412,707.124207 1372.744385,708.110291 1376.238037,709.130249 
	C1389.656860,713.047485 1395.327026,721.223877 1394.743774,735.763367 
	C1390.349121,735.763367 1385.934082,735.763367 1381.202637,735.763367 
	C1381.023438,734.442932 1380.869751,733.012512 1380.630249,731.596680 
	C1379.356201,724.067810 1376.103516,720.311462 1368.484985,719.087891 
	C1362.434692,718.116211 1356.220459,717.562805 1350.103027,717.725525 
	C1332.991821,718.180847 1315.805786,718.281982 1298.815430,720.087646 
	C1283.730835,721.690796 1280.811890,732.836304 1284.411011,746.105408 
	C1285.259277,749.233032 1289.415527,752.345825 1292.763672,753.696899 
	C1297.275269,755.517395 1302.478394,755.624512 1307.841187,756.525269 
z"/>
<path fill="#F9FBFD" opacity="1.000000" stroke="none" 
	d="
M1158.000000,775.844604 
	C1149.855835,775.844604 1142.211792,775.844604 1134.176514,775.844604 
	C1134.176514,790.511169 1134.176514,804.935608 1134.176514,819.678101 
	C1129.393311,819.678101 1124.993164,819.678101 1120.281616,819.678101 
	C1120.281616,782.697144 1120.281616,745.635864 1120.281616,708.237183 
	C1121.406982,708.170959 1122.520020,708.048340 1123.632935,708.048157 
	C1150.298828,708.044861 1176.968628,707.795227 1203.628540,708.198120 
	C1213.395630,708.345642 1223.276855,709.340698 1232.858887,711.213684 
	C1245.101929,713.606934 1249.594971,719.556519 1250.263916,732.033203 
	C1250.548462,737.339844 1250.430908,742.688538 1250.155396,748.000488 
	C1249.581177,759.074707 1245.365479,767.669495 1233.651245,770.526550 
	C1233.753418,771.095459 1233.747437,771.583801 1233.859497,771.612732 
	C1243.381592,774.063354 1247.408081,780.931580 1247.791992,790.019592 
	C1248.205444,799.808167 1247.885498,809.627686 1247.885498,819.716614 
	C1243.489502,819.716614 1239.076782,819.716614 1234.058838,819.716614 
	C1234.058838,811.090210 1234.119385,802.483826 1234.044556,793.878662 
	C1233.936157,781.419373 1231.274780,777.753540 1218.942993,776.881653 
	C1204.675415,775.873047 1190.318848,776.101318 1175.999634,775.860840 
	C1170.167969,775.762878 1164.333252,775.844604 1158.000000,775.844604 
M1207.401978,763.978516 
	C1213.848755,763.351196 1220.366577,763.121460 1226.721924,761.983337 
	C1232.901978,760.876465 1235.715820,757.452087 1236.011230,751.331360 
	C1236.331665,744.690063 1236.232788,738.019165 1236.073486,731.367065 
	C1235.951416,726.271973 1233.283325,722.762756 1228.207764,721.843872 
	C1223.158081,720.929565 1218.010864,720.098083 1212.899780,720.056091 
	C1187.753906,719.849060 1162.605835,719.912720 1137.458496,719.900757 
	C1136.364868,719.900269 1135.271362,720.096985 1134.274414,720.192566 
	C1134.274414,734.945679 1134.274414,749.348572 1134.274414,763.984619 
	C1158.514648,763.984619 1182.470215,763.984619 1207.401978,763.978516 
z"/>
<path fill="#F5F8FA" opacity="1.000000" stroke="none" 
	d="
M1050.000000,808.186401 
	C1067.291626,808.186401 1084.083252,808.186401 1101.145874,808.186401 
	C1101.145874,812.193481 1101.145874,815.797424 1101.145874,819.707642 
	C1064.040405,819.707642 1026.983032,819.707642 989.634033,819.707642 
	C989.634033,782.630737 989.634033,745.568970 989.634033,708.268555 
	C1026.783081,708.268555 1063.717896,708.268555 1101.036743,708.268555 
	C1101.036743,711.928772 1101.036743,715.636536 1101.036743,719.769775 
	C1068.756836,719.769775 1036.517456,719.769775 1003.939270,719.769775 
	C1003.939270,732.245605 1003.939270,744.317017 1003.939270,756.952148 
	C1034.657471,756.952148 1065.543701,756.952148 1096.645752,756.952148 
	C1096.645752,761.096436 1096.645752,764.679810 1096.645752,768.730225 
	C1065.707886,768.730225 1034.968140,768.730225 1003.915039,768.730225 
	C1003.915039,781.937683 1003.915039,794.686157 1003.915039,808.186401 
	C1018.999512,808.186401 1034.249756,808.186401 1050.000000,808.186401 
z"/>
<path fill="#FBFDFE" opacity="1.000000" stroke="none" 
	d="
M387.978027,774.967957 
	C388.271240,780.778748 388.352631,786.117004 388.897949,791.407349 
	C390.152924,803.582031 394.948822,809.295593 407.191681,809.683472 
	C429.978027,810.405334 452.817566,810.384460 475.606506,809.710693 
	C487.814240,809.349915 493.143066,803.664185 494.026733,791.578064 
	C494.923706,779.309814 494.884003,766.964294 495.002197,754.650146 
	C495.149170,739.339600 495.037476,724.026550 495.037476,708.379150 
	C499.613983,708.379150 504.012604,708.379150 508.763153,708.379150 
	C508.859955,709.340149 509.067963,710.438110 509.066803,711.535889 
	C509.042419,734.525269 509.142487,757.516541 508.851837,780.502747 
	C508.774567,786.613220 508.004547,792.827148 506.644562,798.786438 
	C503.567780,812.267944 493.690399,818.804260 480.928314,820.399597 
	C454.744476,823.672668 428.342377,824.078308 402.248016,820.325745 
	C382.566254,817.495361 374.699341,806.934265 374.253815,785.208801 
	C373.731384,759.734924 374.131531,734.242188 374.131531,708.400085 
	C378.440552,708.400085 382.847839,708.400085 387.976929,708.400085 
	C387.976929,730.317139 387.976929,752.395386 387.978027,774.967957 
z"/>
<path fill="#F9FBFD" opacity="1.000000" stroke="none" 
	d="
M913.111633,787.048828 
	C926.200317,761.962341 939.219971,737.257690 951.992493,712.425903 
	C953.779114,708.952271 955.774170,707.564514 959.615356,707.964355 
	C963.048279,708.321655 966.547729,708.039429 970.567749,708.039429 
	C969.742432,709.810120 969.197937,711.157593 968.510193,712.427429 
	C949.745667,747.072205 930.929260,781.689087 912.261353,816.385864 
	C910.797119,819.107483 909.102661,819.669128 906.190674,820.158875 
	C895.114502,822.021729 889.399536,817.538452 884.275269,807.463318 
	C868.077087,775.614990 850.533264,744.451050 833.513489,713.020447 
	C832.738037,711.588440 831.996765,710.138062 830.895752,708.041687 
	C836.076172,708.041687 840.680237,707.748779 845.206665,708.212891 
	C846.640442,708.359863 848.322144,710.287842 849.121216,711.805725 
	C865.227234,742.399231 881.218811,773.052979 897.241516,803.690369 
	C898.285645,805.686829 899.394470,807.649353 900.871521,810.358276 
	C905.117310,802.294128 909.040649,794.842224 913.111633,787.048828 
z"/>
<path fill="#FBFDFE" opacity="1.000000" stroke="none" 
	d="
M768.887573,708.042358 
	C771.020630,708.042236 772.668457,708.042236 774.649414,708.042236 
	C774.649414,711.964844 774.649414,715.672974 774.649414,719.850952 
	C756.189941,719.850952 737.802551,719.850952 719.042114,719.850952 
	C719.042114,753.372742 719.042114,786.434998 719.042114,819.745605 
	C714.269531,819.745605 709.872192,819.745605 705.086426,819.745605 
	C705.086426,786.567322 705.086426,753.507812 705.086426,719.969299 
	C686.329224,719.969299 667.947571,719.969299 649.299927,719.969299 
	C649.299927,715.907166 649.299927,712.312988 649.299927,708.042419 
	C688.951599,708.042419 728.676941,708.042419 768.887573,708.042358 
z"/>
<path fill="#F3F5F8" opacity="1.000000" stroke="none" 
	d="
M546.219482,708.673584 
	C546.466370,741.853394 546.466370,774.645020 546.466370,807.949829 
	C575.960144,807.949829 605.159729,807.949829 634.708618,807.949829 
	C634.708618,812.154419 634.708618,815.855896 634.708618,819.790405 
	C600.759399,819.790405 566.857178,819.790405 532.641418,819.790405 
	C532.641418,782.715271 532.641418,745.679382 532.641418,708.285461 
	C537.138733,708.285461 541.555664,708.285461 546.219482,708.673584 
z"/>
<path fill="#F9FBFD" opacity="1.000000" stroke="none" 
	d="
M798.113098,786.000000 
	C798.113098,759.898926 798.113098,734.297791 798.113098,708.368835 
	C802.792603,708.368835 807.182251,708.368835 811.890564,708.368835 
	C811.890564,745.368591 811.890564,782.384521 811.890564,819.700439 
	C807.563904,819.700439 803.152100,819.700439 798.113098,819.700439 
	C798.113098,808.664429 798.113098,797.582214 798.113098,786.000000 
z"/>
<path fill="#D8E1E9" opacity="1.000000" stroke="none" 
	d="
M503.718384,857.088013 
	C506.288361,855.872925 508.617615,854.348267 510.976868,854.300354 
	C516.322815,854.191650 521.643250,854.751343 527.049072,854.288635 
	C533.136230,853.767639 534.270203,855.275208 534.279541,861.396240 
	C534.289429,867.889343 534.355103,874.384155 534.209717,880.874023 
	C534.183777,882.032043 533.248901,883.169617 532.733643,884.316650 
	C532.175049,884.127686 531.616394,883.938721 531.057739,883.749756 
	C531.057739,876.777832 530.858459,869.798035 531.132935,862.836975 
	C531.296021,858.700867 530.344543,856.990234 525.697205,856.914124 
	C520.647339,856.831482 520.342102,859.285950 520.442200,863.081055 
	C520.600098,869.070557 520.558960,875.069031 520.412903,881.059143 
	C520.388611,882.056274 519.404541,883.030090 518.863953,884.014648 
	C518.294312,883.055908 517.252380,882.107483 517.231018,881.136719 
	C517.085083,874.480286 516.996765,867.814087 517.210510,861.161377 
	C517.338806,857.166748 515.097107,857.026123 512.119751,857.042786 
	C509.059937,857.059937 506.508392,856.948120 506.642853,861.304565 
	C506.872986,868.761536 506.706390,876.230774 506.706390,883.694824 
	C506.137329,883.904358 505.568237,884.113892 504.999176,884.323425 
	C504.437103,883.186157 503.401855,882.054077 503.389252,880.910767 
	C503.303223,873.091431 503.431793,865.269775 503.718384,857.088013 
z"/>
<path fill="#E9F2F7" opacity="1.000000" stroke="none" 
	d="
M1156.114380,875.902832 
	C1156.115112,870.424622 1156.200073,865.428101 1156.091309,860.435852 
	C1155.994751,855.997803 1158.121948,853.910095 1162.434570,854.265198 
	C1165.310059,854.501892 1168.153442,855.538818 1171.007080,855.522095 
	C1174.147095,855.503723 1177.269287,854.551758 1180.422607,854.253113 
	C1184.965820,853.822754 1187.168335,855.842590 1187.061768,860.611328 
	C1186.891235,868.241211 1187.016113,875.877747 1187.016113,883.511475 
	C1186.509644,883.722046 1186.003174,883.932617 1185.496704,884.143188 
	C1184.991699,883.075378 1184.073364,882.016724 1184.049683,880.938354 
	C1183.910767,874.614807 1183.764404,868.276672 1184.056885,861.963684 
	C1184.250244,857.791260 1182.433105,856.956543 1178.722778,856.952942 
	C1174.904663,856.949280 1172.805664,857.572083 1173.027832,862.134827 
	C1173.374390,869.250549 1173.119629,876.395508 1173.119629,883.528076 
	C1172.662842,883.741760 1172.206055,883.955444 1171.749146,884.169128 
	C1171.176636,883.250732 1170.145874,882.350159 1170.109497,881.410950 
	C1169.935303,876.922546 1170.030518,872.423584 1170.030396,867.928406 
	C1170.030273,857.069641 1170.030273,857.069702 1164.788818,857.054321 
	C1159.253174,857.038086 1159.252686,857.038025 1159.250000,868.214478 
	C1159.248901,873.353638 1159.249878,878.492798 1159.249878,884.381714 
	C1154.177490,882.710693 1156.997314,878.824585 1156.114380,875.902832 
z"/>
<path fill="#D8E1E9" opacity="1.000000" stroke="none" 
	d="
M1297.294678,877.572693 
	C1297.295532,871.619812 1297.391602,866.117859 1297.267334,860.620850 
	C1297.161499,855.942871 1299.335449,853.961548 1303.927002,854.134583 
	C1307.588257,854.272644 1311.259033,854.162781 1314.925537,854.165894 
	C1318.638550,854.169006 1320.381836,856.052734 1320.354370,859.740784 
	C1320.317139,864.740417 1320.345947,869.740417 1320.346436,874.740295 
	C1320.347412,883.795410 1320.347412,883.795410 1311.523071,884.219727 
	C1310.549805,885.943298 1309.628906,887.574036 1308.708008,889.204773 
	C1307.921997,887.638306 1307.135864,886.071899 1306.146118,884.099609 
	C1302.435547,883.913086 1297.030029,885.197144 1297.294678,877.572693 
M1317.029541,879.149414 
	C1317.045288,873.022583 1317.251343,866.885498 1316.922119,860.777222 
	C1316.853027,859.496155 1314.563721,857.123413 1313.724609,857.298706 
	C1309.415527,858.198669 1304.151611,854.249084 1300.750488,859.666138 
	C1300.673096,859.789490 1300.710083,859.990723 1300.709961,860.155640 
	C1300.706299,866.117126 1300.613159,872.081299 1300.790283,878.037415 
	C1300.820679,879.054443 1302.021606,880.906738 1302.658447,880.896667 
	C1307.348389,880.822449 1312.032593,880.373047 1317.029541,879.149414 
z"/>
<path fill="#D8E1E9" opacity="1.000000" stroke="none" 
	d="
M806.902344,884.059753 
	C792.997070,884.196655 793.561096,884.969482 793.691467,871.456848 
	C793.730042,867.460083 793.703308,863.462646 793.697449,859.465515 
	C793.692322,856.001404 795.494019,854.246094 798.876099,854.184875 
	C803.038391,854.109375 807.291199,853.665710 811.329407,854.377136 
	C813.335815,854.730530 815.268555,857.088745 816.584900,858.989929 
	C817.109436,859.747559 815.879822,861.719849 815.448853,863.139221 
	C814.730286,861.990112 814.006775,860.844055 813.294189,859.691345 
	C809.894958,854.192871 804.609131,858.184692 800.299316,857.193237 
	C797.287903,856.500427 796.888367,858.888977 796.915649,861.311707 
	C796.975586,866.640503 796.933960,871.970520 796.936523,877.299988 
	C796.936707,877.799377 796.757507,878.442810 796.998291,878.776489 
	C800.453857,883.565002 805.437256,880.296936 809.674133,880.918640 
	C810.713989,881.071289 812.795288,879.054810 813.168091,877.697754 
	C813.762817,875.532898 813.327087,873.084961 813.327087,870.324524 
	C810.616272,870.324524 808.039917,870.324524 805.465210,870.324524 
	C805.440063,866.728455 807.994385,866.180115 816.205139,867.585815 
	C817.625000,882.704224 817.372375,884.765686 806.902344,884.059753 
z"/>
<path fill="#D8E1E9" opacity="1.000000" stroke="none" 
	d="
M962.717529,876.823853 
	C962.717163,869.068359 962.717163,861.791565 962.717163,854.167725 
	C969.015015,854.167725 974.820679,853.906738 980.576721,854.326538 
	C982.305420,854.452576 985.216003,856.374939 985.312378,857.646606 
	C985.659912,862.231323 987.435791,867.291565 984.286743,870.225037 
	C984.835327,874.717957 985.381958,878.266968 985.605957,881.836365 
	C985.649109,882.524170 984.428406,883.291382 983.790649,884.021973 
	C983.293152,883.317566 982.495972,882.669006 982.352356,881.898682 
	C981.849854,879.203247 982.472656,874.948486 981.010193,874.081177 
	C978.486450,872.584351 974.723022,873.137756 971.473694,872.921082 
	C969.841919,872.812317 968.196838,872.902100 965.941711,872.902100 
	C965.941711,874.928040 965.941711,876.685120 965.941711,878.442200 
	C965.941711,880.090332 965.941711,881.738403 965.941711,883.368042 
	C962.720825,883.605164 962.720825,883.605164 962.717529,876.823853 
M966.814453,857.178833 
	C966.419739,861.296021 966.024963,865.413269 965.589905,869.951050 
	C970.376343,869.951050 974.367737,870.302246 978.238708,869.773193 
	C979.726807,869.569763 981.447693,867.582031 982.135132,866.003540 
	C982.802368,864.471130 982.743713,862.246582 982.142578,860.650391 
	C981.609253,859.234253 980.002136,857.428772 978.678955,857.256714 
	C975.094299,856.790710 971.408691,857.101624 966.814453,857.178833 
z"/>
<path fill="#D8E1E9" opacity="1.000000" stroke="none" 
	d="
M352.286560,872.900330 
	C352.287842,868.250610 352.290070,864.084473 352.290070,859.918335 
	C352.290039,856.021118 354.234406,854.126892 358.133514,854.158264 
	C362.132751,854.190430 366.133179,854.117859 370.131744,854.180237 
	C373.527466,854.233093 375.332458,856.012085 375.343903,859.444824 
	C375.365570,865.943970 375.366669,872.443237 375.343262,878.942383 
	C375.330841,882.390930 373.597931,884.113892 370.101379,884.069519 
	C366.769012,884.027222 363.435669,884.061707 360.102753,884.059692 
	C353.175171,884.055542 352.308167,883.203613 352.287018,876.383545 
	C352.283936,875.383667 352.286560,874.383789 352.286560,872.900330 
M370.046356,857.148621 
	C367.065399,857.130432 364.063080,857.330200 361.108643,857.041077 
	C357.049103,856.643860 355.294647,858.026489 355.634155,862.277893 
	C355.923340,865.898743 355.686401,869.560974 355.695099,873.204895 
	C355.716461,882.177917 354.972015,881.102783 363.753723,881.093811 
	C373.258759,881.084106 372.119080,882.183167 372.016907,872.501038 
	C371.964020,867.489075 371.298981,862.483521 370.046356,857.148621 
z"/>
<path fill="#E3ECF2" opacity="1.000000" stroke="none" 
	d="
M695.068359,856.104248 
	C695.661133,858.599609 695.967834,860.789185 696.274475,862.978821 
	C695.800293,863.164062 695.326050,863.349365 694.851868,863.534607 
	C694.284729,862.724854 693.676941,861.940186 693.159851,861.099670 
	C692.327942,859.747437 691.625061,857.237549 690.746399,857.183411 
	C687.365906,856.974976 683.601257,856.831299 680.697205,858.193115 
	C679.585632,858.714478 679.985291,863.434753 680.561401,866.050964 
	C680.764221,866.972168 683.527283,867.773926 685.158875,867.852722 
	C690.026733,868.087524 694.913208,867.936951 699.792419,867.936951 
	C699.895569,868.415344 699.998779,868.893677 700.101929,869.372070 
	C698.841187,870.004150 697.580444,870.636230 696.111694,871.372559 
	C696.996094,875.354370 693.006897,881.030945 701.769653,882.375183 
	C700.010559,883.429016 699.379700,884.077026 699.075134,883.949036 
	C694.367676,881.969543 689.691772,884.975037 685.050354,883.993835 
	C682.457336,883.445618 677.979431,882.823059 677.775330,881.642151 
	C677.150757,878.028625 678.165588,874.126526 678.597900,870.343018 
	C678.644287,869.937012 679.051880,869.572388 679.291931,869.188599 
	C678.789612,869.184509 678.287292,869.180359 677.784973,869.176270 
	C677.529602,865.404175 677.042480,861.624878 677.159668,857.864380 
	C677.194946,856.731750 678.925171,854.692505 679.853088,854.707153 
	C684.833984,854.785645 689.806702,855.381409 695.068359,856.104248 
M681.141907,871.357361 
	C681.009583,874.471069 680.877258,877.584839 680.744934,880.698547 
	C684.484802,880.791321 688.933838,882.125061 691.712891,880.536804 
	C693.538696,879.493347 692.953735,874.231934 693.444580,870.885315 
	C688.883545,870.885315 685.414734,870.885315 681.141907,871.357361 
z"/>
<path fill="#E3ECF2" opacity="1.000000" stroke="none" 
	d="
M170.752655,874.912598 
	C170.752670,867.803406 170.752670,861.182190 170.752670,854.203491 
	C176.361954,854.203491 181.486893,854.106812 186.606003,854.237976 
	C189.955109,854.323792 193.775040,858.269653 193.849564,861.663025 
	C193.959000,866.645752 193.958740,871.634277 193.851334,876.617065 
	C193.775284,880.145142 190.085632,883.928894 186.627502,884.005432 
	C181.490860,884.119141 176.349854,884.034912 170.752640,884.034912 
	C170.752640,880.975342 170.752640,878.187927 170.752655,874.912598 
M173.910645,866.533325 
	C173.910645,871.287476 173.910645,876.041687 173.910645,881.456909 
	C179.641876,879.810425 187.102509,884.505127 189.661530,878.102112 
	C191.777756,872.806885 191.681274,865.172119 189.402985,859.954834 
	C186.727188,853.827209 179.419403,858.281250 173.910629,856.853210 
	C173.910629,860.287720 173.910629,862.916748 173.910645,866.533325 
z"/>
<path fill="#E9F2F7" opacity="1.000000" stroke="none" 
	d="
M1240.954346,883.956299 
	C1239.994995,883.499878 1239.075073,883.008240 1239.070435,882.508118 
	C1238.984253,873.249023 1239.007324,863.988770 1239.007324,854.230713 
	C1245.350098,854.230713 1251.296997,854.000488 1257.203857,854.384277 
	C1258.783203,854.486877 1261.476929,856.404663 1261.535400,857.593628 
	C1261.761597,862.189941 1263.574829,867.236816 1260.335449,870.369080 
	C1261.096924,875.235901 1261.747437,879.392944 1262.397827,883.550049 
	C1261.764526,883.802307 1261.131226,884.054626 1260.497925,884.306885 
	C1259.916382,883.322571 1258.914673,882.377014 1258.819580,881.347656 
	C1258.033936,872.855042 1258.084839,872.850220 1249.300415,872.849854 
	C1247.019897,872.849731 1244.739258,872.849915 1242.395630,872.849915 
	C1242.046631,876.808044 1241.733154,880.362549 1240.954346,883.956299 
M1242.029297,868.272766 
	C1244.273193,870.495667 1255.947876,870.851257 1257.752930,868.717834 
	C1258.162354,868.233948 1258.625977,867.600403 1258.649048,867.019287 
	C1258.747192,864.547913 1258.981445,862.017578 1258.547974,859.620422 
	C1258.367798,858.623779 1256.683472,857.245483 1255.611450,857.177856 
	C1251.217651,856.900940 1246.796265,857.062256 1242.020996,857.062256 
	C1242.020996,860.784729 1242.020996,864.052063 1242.029297,868.272766 
z"/>
<path fill="#D8E1E9" opacity="1.000000" stroke="none" 
	d="
M1116.714844,862.159119 
	C1116.716675,860.021301 1116.533691,858.326904 1116.793945,856.703613 
	C1116.935669,855.819458 1117.830078,855.056030 1118.385132,854.238159 
	C1118.903442,855.094849 1119.854248,855.942993 1119.871338,856.809509 
	C1119.999268,863.299561 1120.121094,869.800049 1119.875244,876.283203 
	C1119.736938,879.933105 1120.832397,881.205566 1124.632446,881.196350 
	C1136.285278,881.167969 1136.284912,881.320923 1136.286865,869.751282 
	C1136.287720,865.422913 1136.202515,861.091064 1136.371826,856.769226 
	C1136.405640,855.906433 1137.418213,855.081970 1137.979248,854.239746 
	C1138.554443,855.069092 1139.614502,855.890076 1139.629028,856.729187 
	C1139.758911,864.218262 1140.017700,871.733582 1139.470703,879.184753 
	C1139.343384,880.920105 1136.480103,883.493408 1134.545288,883.841003 
	C1130.513550,884.565369 1126.260132,884.010681 1122.099243,884.075012 
	C1118.337769,884.133179 1116.666870,882.304321 1116.701660,878.613708 
	C1116.751709,873.286987 1116.714722,867.959412 1116.714844,862.159119 
z"/>
<path fill="#D8E1E9" opacity="1.000000" stroke="none" 
	d="
M391.309692,873.943970 
	C391.309723,867.197510 391.309723,860.940430 391.309723,854.197205 
	C397.988556,854.197205 404.076996,854.196899 410.165436,854.198730 
	C410.330872,854.198792 410.521454,854.171631 410.658142,854.240662 
	C417.277527,857.586365 413.600189,863.648804 413.997437,868.462524 
	C414.107056,869.790771 410.801575,872.399231 408.805176,872.698242 
	C404.442078,873.351624 399.913574,872.900330 394.696625,872.900330 
	C394.696625,876.015686 394.827576,878.927246 394.609741,881.812561 
	C394.551147,882.588806 393.432159,883.284973 392.799927,884.017883 
	C392.307281,883.311096 391.444214,882.631592 391.389709,881.892517 
	C391.207306,879.417664 391.313782,876.921387 391.309692,873.943970 
M395.725800,857.168030 
	C395.259888,861.250793 394.793945,865.333557 394.266693,869.953735 
	C399.028473,869.953735 402.964722,869.791504 406.880676,870.003296 
	C410.221436,870.184021 411.365601,868.757324 411.079102,865.618042 
	C410.944550,864.143921 410.964874,862.640381 411.076172,861.162292 
	C411.296631,858.235413 410.166473,856.899109 407.091522,857.054749 
	C403.631897,857.229919 400.156860,857.100159 395.725800,857.168030 
z"/>
<path fill="#D8E1E9" opacity="1.000000" stroke="none" 
	d="
M442.834656,854.163757 
	C451.675385,854.164551 456.515839,862.706360 452.048553,870.086487 
	C451.160980,871.552734 448.628448,872.612732 446.759186,872.777222 
	C442.345673,873.165588 437.874725,872.901855 433.659607,872.901855 
	C431.662384,876.589478 434.673248,881.270630 431.609741,884.173462 
	C431.087036,884.053833 430.564362,883.934143 430.041656,883.814514 
	C430.041656,874.127319 430.041656,864.440186 430.041656,854.163818 
	C434.186646,854.163818 438.274933,854.163818 442.834656,854.163757 
M449.141113,868.178406 
	C449.187469,865.536560 449.533875,862.849365 449.145142,860.273193 
	C448.968567,859.103271 447.399841,857.328979 446.351929,857.247192 
	C441.979004,856.906006 437.564056,857.103516 433.309662,857.103516 
	C433.309662,861.753296 433.309662,865.776123 433.309662,870.397888 
	C438.723053,869.915161 443.727173,869.468933 449.141113,868.178406 
z"/>
<path fill="#E3ECF2" opacity="1.000000" stroke="none" 
	d="
M1033.942139,857.068115 
	C1030.825439,857.068115 1028.187134,857.068115 1025.230957,857.068115 
	C1025.230957,860.725464 1025.230957,864.122925 1025.230957,868.009094 
	C1029.510132,868.009094 1033.738037,868.009094 1037.965942,868.009094 
	C1038.027588,868.504761 1038.089111,869.000427 1038.150757,869.496094 
	C1034.390991,872.348938 1029.453857,869.561584 1025.166626,871.188354 
	C1025.166626,874.196045 1025.166626,877.299744 1025.166626,880.683228 
	C1030.652344,882.451233 1037.032349,879.455444 1042.469604,882.309937 
	C1042.431030,882.743530 1042.392456,883.177185 1042.353882,883.610840 
	C1035.673218,883.610840 1028.992676,883.610840 1022.028748,883.610840 
	C1022.028748,874.061584 1022.028748,864.336792 1022.028748,854.636597 
	C1032.072388,853.330566 1040.353149,853.921387 1043.307373,857.068115 
	C1039.754883,857.068115 1037.087646,857.068115 1033.942139,857.068115 
z"/>
<path fill="#E3ECF2" opacity="1.000000" stroke="none" 
	d="
M1375.752686,864.072388 
	C1375.752686,860.613953 1375.752686,857.641724 1375.752686,854.746094 
	C1386.045166,853.179993 1394.872192,853.962891 1396.544434,856.889038 
	C1390.735596,856.889038 1385.155151,856.889038 1379.245117,856.889038 
	C1379.245117,860.698059 1379.245117,864.093140 1379.245117,867.972412 
	C1383.493042,867.972412 1387.721069,867.972412 1391.948975,867.972412 
	C1392.021240,868.516113 1392.093384,869.059814 1392.165649,869.603516 
	C1388.369385,872.208496 1383.489502,869.646912 1379.177979,871.162170 
	C1379.177979,874.160645 1379.177979,877.267334 1379.177979,880.669189 
	C1384.629028,882.446716 1391.011230,879.481995 1396.474487,882.271912 
	C1396.438110,882.710144 1396.401733,883.148438 1396.365356,883.586670 
	C1389.697388,883.586670 1383.029419,883.586670 1375.752563,883.586670 
	C1375.752563,877.397400 1375.752563,870.977966 1375.752686,864.072388 
z"/>
<path fill="#E3ECF2" opacity="1.000000" stroke="none" 
	d="
M1207.146729,867.117188 
	C1211.454590,867.591919 1215.591553,867.591919 1219.832275,867.591919 
	C1219.441895,869.563232 1219.441895,869.563232 1207.146973,871.175049 
	C1207.146973,874.236023 1207.146973,877.337341 1207.146973,880.651794 
	C1212.672485,882.491699 1219.057251,879.410339 1224.471558,882.319031 
	C1224.429199,882.756958 1224.386719,883.194885 1224.344360,883.632812 
	C1217.654419,883.632812 1210.964600,883.632812 1204.009521,883.632812 
	C1204.009521,874.044678 1204.009521,864.315002 1204.009521,854.612793 
	C1214.494751,853.335388 1222.375977,853.917419 1224.943726,856.725037 
	C1218.764282,856.725037 1213.127197,856.725037 1206.975708,856.725037 
	C1206.975708,860.451233 1206.975708,863.546875 1207.146729,867.117188 
z"/>
<path fill="#D8E1E9" opacity="1.000000" stroke="none" 
	d="
M229.670013,854.565308 
	C228.932068,855.610840 227.959946,856.939575 226.922958,856.992249 
	C222.325119,857.225952 217.708694,857.093445 212.944427,857.093445 
	C212.944427,860.859070 212.944427,864.117737 212.944427,867.687073 
	C217.269989,867.687073 221.374588,867.687073 225.504333,867.687073 
	C225.311218,869.878723 225.311218,869.878723 213.042465,871.120178 
	C213.042465,874.148743 213.042465,877.233887 213.042465,880.617310 
	C218.390350,882.350342 224.804306,879.582031 230.220612,882.111694 
	C230.131607,882.674194 230.042603,883.236633 229.953613,883.799133 
	C223.246048,883.799133 216.538483,883.799133 209.584229,883.799133 
	C209.487045,882.505249 209.331848,881.379028 209.329086,880.252502 
	C209.308441,871.805115 209.317841,863.357727 209.317841,854.261108 
	C216.275436,854.261108 222.840714,854.261108 229.670013,854.565308 
z"/>
<path fill="#D8E1E9" opacity="1.000000" stroke="none" 
	d="
M845.848450,884.060059 
	C841.226807,884.060059 837.078247,884.060059 832.635010,884.060059 
	C832.635010,874.053589 832.635010,864.341553 832.635010,854.678589 
	C843.230530,853.115417 851.727417,853.887085 853.322083,856.929321 
	C847.521729,856.929321 841.952332,856.929321 836.052246,856.929321 
	C836.052246,860.775696 836.052246,864.154663 836.052246,867.848755 
	C840.372009,867.848755 844.488159,867.848755 848.667236,867.848755 
	C848.034241,870.742188 848.034241,870.743408 843.546387,870.748352 
	C841.091187,870.751099 838.636047,870.748840 835.958252,870.748840 
	C835.958252,874.337341 835.958252,877.424561 835.958252,880.737183 
	C841.632324,882.023987 847.827515,879.943909 853.340088,881.877686 
	C853.257263,882.605164 853.174438,883.332642 853.091614,884.060120 
	C850.834961,884.060120 848.578247,884.060120 845.848450,884.060059 
z"/>
<path fill="#D8E1E9" opacity="1.000000" stroke="none" 
	d="
M294.009888,884.060120 
	C290.703094,884.060120 287.880676,884.060120 284.682617,884.060120 
	C284.682617,874.137939 284.682617,864.443848 284.682617,854.781067 
	C293.477234,853.146790 303.576202,853.922791 305.499298,856.948853 
	C299.451904,856.948853 293.767578,856.948853 287.950470,856.948853 
	C287.950470,860.863159 287.950470,864.127808 287.950470,867.705261 
	C292.291504,867.705261 296.402466,867.705261 300.549561,867.705261 
	C300.193542,870.739197 300.193542,870.741150 295.711212,870.748901 
	C293.247101,870.753174 290.782990,870.749634 288.019104,870.749634 
	C288.019104,874.221130 288.019104,877.316345 288.019104,880.475159 
	C293.627258,881.061279 299.338989,881.656433 305.043793,882.312256 
	C305.066711,882.314880 304.989960,883.184814 304.933136,884.060120 
	C301.403625,884.060120 297.948944,884.060120 294.009888,884.060120 
z"/>
<path fill="#E3ECF2" opacity="1.000000" stroke="none" 
	d="
M927.096375,875.930176 
	C927.104736,868.958618 927.110168,862.476318 927.130127,855.994019 
	C927.131165,855.668823 927.257385,855.343933 927.326538,855.019165 
	C934.104675,853.077698 946.353699,853.911133 948.147522,856.912598 
	C942.142273,856.912598 936.415649,856.912598 930.481384,856.912598 
	C930.481384,860.654541 930.481384,863.900391 930.481384,867.865723 
	C934.979919,867.865723 939.328430,867.865723 943.676941,867.865723 
	C943.748535,868.559814 943.820129,869.253967 943.891785,869.948059 
	C941.851196,870.201538 939.816711,870.565186 937.768372,870.679199 
	C935.473328,870.806885 933.165649,870.708496 930.571533,870.708496 
	C930.571533,874.199463 930.571533,877.279480 930.571533,880.716675 
	C936.118103,882.191101 942.519531,879.812561 948.099548,882.072754 
	C948.020935,882.628418 947.942322,883.184143 947.863708,883.739807 
	C941.140564,883.739807 934.417419,883.739807 927.096375,883.739807 
	C927.096375,881.282471 927.096375,878.850952 927.096375,875.930176 
z"/>
<path fill="#E3ECF2" opacity="1.000000" stroke="none" 
	d="
M560.091553,857.068481 
	C557.966614,857.068481 556.321167,857.068481 554.355347,857.068481 
	C554.355347,860.693909 554.355347,864.103455 554.355347,868.130249 
	C558.692871,868.130249 563.065186,868.130249 567.437500,868.130249 
	C567.492737,868.796387 567.547974,869.462585 567.603210,870.128723 
	C563.325195,870.420410 559.047119,870.712158 554.396240,871.029236 
	C554.396240,874.069397 554.396240,877.286560 554.396240,880.747620 
	C559.962524,882.313110 566.298523,879.602295 571.839661,882.230591 
	C571.807251,882.677612 571.774841,883.124634 571.742493,883.571655 
	C565.068420,883.571655 558.394348,883.571655 551.342346,883.571655 
	C551.342346,874.225891 551.342346,864.519653 551.342346,854.802429 
	C559.367310,853.207275 569.887024,853.947693 572.330627,857.068481 
	C567.999268,857.068481 564.285156,857.068481 560.091553,857.068481 
z"/>
<path fill="#E3ECF2" opacity="1.000000" stroke="none" 
	d="
M479.973175,857.068787 
	C476.856659,857.068726 474.221497,857.068726 471.316528,857.068726 
	C471.316528,860.773682 471.316528,864.179199 471.316528,868.221375 
	C475.746429,868.221375 480.089722,868.221375 484.432983,868.221375 
	C484.490204,868.894470 484.547455,869.567566 484.604706,870.240662 
	C480.287018,870.478394 475.969299,870.716125 471.343964,870.970825 
	C471.343964,874.128967 471.343964,877.364197 471.343964,881.144287 
	C474.464661,881.144287 477.572723,881.058655 480.673706,881.169800 
	C483.433319,881.268799 486.185089,881.585754 488.940338,881.806519 
	C488.864502,882.415771 488.788666,883.025024 488.712830,883.634277 
	C482.020874,883.634277 475.328918,883.634277 468.302002,883.634277 
	C468.302002,874.140076 468.302002,864.440552 468.302002,854.215210 
	C475.236267,854.275635 482.055450,854.001038 488.822266,854.382324 
	C488.777466,855.277832 488.732635,856.173340 488.687836,857.068848 
	C485.943420,857.068848 483.198975,857.068848 479.973175,857.068787 
z"/>
<path fill="#E9F2F7" opacity="1.000000" stroke="none" 
	d="
M1336.180664,880.303101 
	C1336.123047,872.371155 1336.059326,864.880249 1336.182007,857.392334 
	C1336.199097,856.352783 1337.135132,855.328247 1337.645874,854.296814 
	C1338.180298,855.300537 1339.155273,856.294678 1339.177368,857.309570 
	C1339.318726,863.797791 1339.365234,870.293579 1339.202515,876.780823 
	C1339.122925,879.951416 1340.165283,881.146179 1343.467529,881.232727 
	C1355.984375,881.560669 1355.981689,881.664612 1355.981689,869.125488 
	C1355.981689,864.196045 1355.981689,859.266602 1355.981689,854.337097 
	C1356.466431,854.193481 1356.951294,854.049805 1357.436035,853.906128 
	C1357.963013,854.763367 1358.933960,855.613525 1358.947754,856.478821 
	C1359.068604,864.133362 1359.287598,871.807556 1358.805054,879.433411 
	C1358.702637,881.051697 1356.017090,883.541260 1354.243530,883.812622 
	C1350.014893,884.459717 1345.586426,884.334900 1341.308838,883.872925 
	C1339.525391,883.680420 1337.920166,881.837524 1336.180664,880.303101 
z"/>
<path fill="#E9F2F7" opacity="1.000000" stroke="none" 
	d="
M1100.019043,880.754761 
	C1099.442871,882.146057 1098.867065,883.062012 1098.291138,883.977966 
	C1097.853516,883.087708 1097.051025,882.203369 1097.036499,881.306213 
	C1096.928345,874.649658 1096.863159,867.987854 1097.024536,861.333496 
	C1097.104248,858.046753 1095.809814,856.944824 1092.605347,857.013855 
	C1077.983154,857.329041 1080.478760,855.036621 1080.257690,868.886230 
	C1080.191406,873.046631 1080.356079,877.213928 1080.164673,881.366577 
	C1080.118530,882.364197 1079.073608,883.315735 1078.488159,884.288452 
	C1078.031738,884.077759 1077.575439,883.867065 1077.119141,883.656372 
	C1077.119141,875.516235 1076.828003,867.357544 1077.347168,859.250610 
	C1077.460571,857.480469 1080.265015,854.806702 1082.182495,854.451294 
	C1086.205811,853.705688 1090.463501,854.219177 1094.624878,854.224731 
	C1098.336060,854.229736 1100.052246,856.126099 1100.031372,859.805298 
	C1099.992798,866.629761 1100.019653,873.454712 1100.019043,880.754761 
z"/>
<path fill="#E9F2F7" opacity="1.000000" stroke="none" 
	d="
M875.307373,854.221313 
	C878.930542,854.221985 882.094055,854.238708 885.257324,854.218384 
	C888.905945,854.195007 890.847656,855.995178 890.875610,859.630859 
	C890.930603,866.789673 890.955566,873.950439 890.826111,881.107300 
	C890.806824,882.173462 889.881409,883.223267 889.375183,884.280640 
	C888.833984,884.107117 888.292847,883.933533 887.751648,883.759949 
	C887.751648,876.508545 887.625183,869.254028 887.805603,862.007141 
	C887.894409,858.440247 886.819885,856.892456 882.991333,856.995422 
	C868.692017,857.380066 871.285706,855.020996 871.036316,868.720764 
	C870.957581,873.048218 871.103821,877.381348 870.942200,881.704224 
	C870.913086,882.481628 869.883057,883.221619 869.315125,883.978882 
	C868.873779,883.258606 868.057617,882.542969 868.048706,881.817444 
	C867.955505,874.159790 867.818176,866.495239 868.059937,858.844116 
	C868.191895,854.668335 871.375183,854.000244 875.307373,854.221313 
z"/>
<path fill="#E9F2F7" opacity="1.000000" stroke="none" 
	d="
M608.060547,856.245667 
	C608.566101,865.172668 608.810242,873.771729 608.945007,882.372498 
	C608.953308,882.903381 608.099243,883.447754 607.646423,883.985901 
	C607.092712,883.211182 606.074463,882.445862 606.058594,881.660339 
	C605.927795,875.167175 605.799011,868.663086 606.049927,862.177063 
	C606.200378,858.290283 604.960083,856.867920 600.946167,856.982788 
	C587.300903,857.373535 589.429993,855.134033 589.260010,868.561462 
	C589.196838,873.551270 589.249756,878.542480 589.249756,885.056396 
	C587.634216,883.491577 586.233765,882.771057 586.218811,882.022766 
	C586.061951,874.197754 585.997925,866.364075 586.256836,858.544250 
	C586.300598,857.223938 588.014954,854.837952 588.935608,854.848450 
	C595.218445,854.920410 601.495422,855.501343 608.060547,856.245667 
z"/>
<path fill="#E9F2F7" opacity="1.000000" stroke="none" 
	d="
M756.030884,883.954102 
	C755.372986,875.473450 754.954529,867.028503 755.202820,858.603210 
	C755.247009,857.103760 757.920654,854.659363 759.619995,854.430298 
	C764.034912,853.835083 768.668640,853.727356 773.038391,854.467651 
	C774.884583,854.780457 777.535217,857.618103 777.671509,859.466614 
	C778.208740,866.752747 777.959961,874.103088 777.812561,881.425781 
	C777.793091,882.393372 776.676758,883.338745 776.068420,884.294434 
	C775.629089,884.069763 775.189758,883.845093 774.750427,883.620422 
	C774.750427,876.310120 774.639465,868.997437 774.799438,861.690674 
	C774.874146,858.278992 773.706299,856.916443 770.176208,857.004517 
	C755.529785,857.370178 758.308044,854.961426 758.031189,869.030579 
	C757.952576,873.024902 758.118835,877.026245 757.949097,881.014832 
	C757.906006,882.027466 757.004822,883.003601 756.030884,883.954102 
z"/>
<path fill="#E3ECF2" opacity="1.000000" stroke="none" 
	d="
M244.969727,873.475769 
	C244.969482,867.709167 244.884811,862.385254 245.048447,857.068970 
	C245.077591,856.121887 246.137100,855.206543 246.720856,854.276611 
	C247.157608,855.187378 247.946198,856.088379 247.971832,857.010559 
	C248.101166,861.663086 248.361099,866.350952 247.944351,870.969421 
	C247.476837,876.150696 251.163361,878.519409 254.368530,880.749084 
	C257.624237,883.013977 264.579193,877.128052 264.702301,872.231567 
	C264.827606,867.245911 264.642609,862.251892 264.805603,857.268433 
	C264.838715,856.255432 265.817169,855.273376 266.359833,854.277100 
	C266.877747,855.297974 267.813873,856.307007 267.843292,857.341797 
	C267.994324,862.658813 268.960663,868.275330 267.581635,873.211548 
	C266.468384,877.196289 263.041290,881.316101 259.496307,883.598816 
	C256.531952,885.507629 252.026779,884.537964 249.511307,880.645569 
	C248.043472,878.374390 246.486771,876.160645 244.969727,873.475769 
z"/>
<path fill="#E3ECF2" opacity="1.000000" stroke="none" 
	d="
M634.965942,876.880371 
	C634.965942,879.499878 634.965942,881.636169 634.965942,883.772461 
	C634.409058,883.950623 633.852112,884.128845 633.295227,884.307068 
	C632.807922,883.145203 631.917358,881.989929 631.898438,880.820496 
	C631.772644,873.034851 631.833252,865.246216 631.833252,857.034912 
	C628.489807,857.034912 625.391907,857.034912 620.783325,857.034912 
	C622.459778,855.470398 623.034912,854.462769 623.785889,854.307739 
	C629.562866,853.115479 642.777954,854.295288 645.222412,856.719360 
	C641.617188,856.911682 638.636108,857.070679 634.965942,857.266479 
	C634.965942,863.601990 634.965942,869.999573 634.965942,876.880371 
z"/>
<path fill="#E3ECF2" opacity="1.000000" stroke="none" 
	d="
M322.910706,872.960449 
	C322.910706,875.770142 322.910706,878.086426 322.910706,880.605286 
	C328.658997,882.431152 335.026642,879.479980 340.471100,882.292847 
	C340.433563,882.728333 340.395996,883.163757 340.358459,883.599243 
	C333.690033,883.599243 327.021576,883.599243 319.757843,883.599243 
	C319.757843,874.739258 319.714325,865.666443 319.834961,856.595825 
	C319.845367,855.813354 320.942169,855.045410 321.534363,854.270752 
	C321.992584,855.184570 322.823853,856.088928 322.847107,857.013733 
	C322.976593,862.162048 322.910156,867.315430 322.910706,872.960449 
z"/>
<path fill="#E3ECF2" opacity="1.000000" stroke="none" 
	d="
M1281.269165,874.902466 
	C1281.268188,877.536804 1281.469849,879.715332 1281.171753,881.823120 
	C1281.042847,882.736084 1279.883667,883.503357 1279.192505,884.336792 
	C1278.829956,884.141541 1278.467285,883.946289 1278.104736,883.751038 
	C1278.104736,874.677490 1278.072754,865.603638 1278.163330,856.531006 
	C1278.170776,855.775146 1279.005249,855.027527 1279.455566,854.276001 
	C1280.057495,855.036682 1281.162476,855.784851 1281.181641,856.560120 
	C1281.329590,862.509766 1281.266602,868.464661 1281.269165,874.902466 
z"/>
<path fill="#E3ECF2" opacity="1.000000" stroke="none" 
	d="
M735.096313,868.008972 
	C735.096802,864.014160 735.001892,860.510864 735.161255,857.019104 
	C735.203918,856.085693 736.023560,855.187866 736.486511,854.273682 
	C737.078979,855.221252 738.171692,856.161255 738.186035,857.117432 
	C738.318237,865.939148 738.263977,874.763611 738.263977,883.587219 
	C737.849487,883.824097 737.435059,884.060974 737.020569,884.297852 
	C736.379944,883.365601 735.230774,882.457031 735.186157,881.497009 
	C734.985046,877.174255 735.097107,872.836853 735.096313,868.008972 
z"/>
<path fill="#E3ECF2" opacity="1.000000" stroke="none" 
	d="
M1001.794067,855.909912 
	C1004.589111,854.179871 1004.829224,854.176636 1004.861694,856.606567 
	C1004.974731,865.056946 1004.964172,873.510864 1004.810791,881.959961 
	C1004.796509,882.746216 1003.438843,883.508057 1001.762268,885.274231 
	C1001.762268,874.526550 1001.762268,865.427063 1001.794067,855.909912 
z"/>
<path fill="#D8E1E9" opacity="1.000000" stroke="none" 
	d="
M908.147583,883.849487 
	C907.595703,874.740601 907.411682,865.798889 907.388428,856.856812 
	C907.386169,855.985291 908.374695,855.111084 908.903320,854.238098 
	C909.500610,855.042053 910.604980,855.838440 910.616943,856.651062 
	C910.742004,865.117920 910.739075,873.588135 910.597595,882.054565 
	C910.586487,882.719788 909.270203,883.363159 908.147583,883.849487 
z"/>
<path fill="#052651" opacity="1.000000" stroke="none" 
	d="
M1206.913818,763.981567 
	C1182.470215,763.984619 1158.514648,763.984619 1134.274414,763.984619 
	C1134.274414,749.348572 1134.274414,734.945679 1134.274414,720.192566 
	C1135.271362,720.096985 1136.364868,719.900269 1137.458496,719.900757 
	C1162.605835,719.912720 1187.753906,719.849060 1212.899780,720.056091 
	C1218.010864,720.098083 1223.158081,720.929565 1228.207764,721.843872 
	C1233.283325,722.762756 1235.951416,726.271973 1236.073486,731.367065 
	C1236.232788,738.019165 1236.331665,744.690063 1236.011230,751.331360 
	C1235.715820,757.452087 1232.901978,760.876465 1226.721924,761.983337 
	C1220.366577,763.121460 1213.848755,763.351196 1206.913818,763.981567 
z"/>
<path fill="#052651" opacity="1.000000" stroke="none" 
	d="
M1316.874023,879.595581 
	C1312.032593,880.373047 1307.348389,880.822449 1302.658447,880.896667 
	C1302.021606,880.906738 1300.820679,879.054443 1300.790283,878.037415 
	C1300.613159,872.081299 1300.706299,866.117126 1300.709961,860.155640 
	C1300.710083,859.990723 1300.673096,859.789490 1300.750488,859.666138 
	C1304.151611,854.249084 1309.415527,858.198669 1313.724609,857.298706 
	C1314.563721,857.123413 1316.853027,859.496155 1316.922119,860.777222 
	C1317.251343,866.885498 1317.045288,873.022583 1316.874023,879.595581 
z"/>
<path fill="#052651" opacity="1.000000" stroke="none" 
	d="
M967.288818,857.141602 
	C971.408691,857.101624 975.094299,856.790710 978.678955,857.256714 
	C980.002136,857.428772 981.609253,859.234253 982.142578,860.650391 
	C982.743713,862.246582 982.802368,864.471130 982.135132,866.003540 
	C981.447693,867.582031 979.726807,869.569763 978.238708,869.773193 
	C974.367737,870.302246 970.376343,869.951050 965.589905,869.951050 
	C966.024963,865.413269 966.419739,861.296021 967.288818,857.141602 
z"/>
<path fill="#052651" opacity="1.000000" stroke="none" 
	d="
M370.478455,857.311890 
	C371.298981,862.483521 371.964020,867.489075 372.016907,872.501038 
	C372.119080,882.183167 373.258759,881.084106 363.753723,881.093811 
	C354.972015,881.102783 355.716461,882.177917 355.695099,873.204895 
	C355.686401,869.560974 355.923340,865.898743 355.634155,862.277893 
	C355.294647,858.026489 357.049103,856.643860 361.108643,857.041077 
	C364.063080,857.330200 367.065399,857.130432 370.478455,857.311890 
z"/>
<path fill="#052651" opacity="1.000000" stroke="none" 
	d="
M681.543945,871.121338 
	C685.414734,870.885315 688.883545,870.885315 693.444580,870.885315 
	C692.953735,874.231934 693.538696,879.493347 691.712891,880.536804 
	C688.933838,882.125061 684.484802,880.791321 680.744873,880.698547 
	C680.877258,877.584839 681.009583,874.471069 681.543945,871.121338 
z"/>
<path fill="#052651" opacity="1.000000" stroke="none" 
	d="
M173.910645,866.039551 
	C173.910629,862.916748 173.910629,860.287720 173.910629,856.853210 
	C179.419403,858.281250 186.727188,853.827209 189.402985,859.954834 
	C191.681274,865.172119 191.777756,872.806885 189.661530,878.102112 
	C187.102509,884.505127 179.641876,879.810425 173.910645,881.456909 
	C173.910645,876.041687 173.910645,871.287476 173.910645,866.039551 
z"/>
<path fill="#052651" opacity="1.000000" stroke="none" 
	d="
M1242.025146,867.796021 
	C1242.020996,864.052063 1242.020996,860.784729 1242.020996,857.062256 
	C1246.796265,857.062256 1251.217651,856.900940 1255.611450,857.177856 
	C1256.683472,857.245483 1258.367798,858.623779 1258.547974,859.620422 
	C1258.981445,862.017578 1258.747192,864.547913 1258.649048,867.019287 
	C1258.625977,867.600403 1258.162354,868.233948 1257.752930,868.717834 
	C1255.947876,870.851257 1244.273193,870.495667 1242.025146,867.796021 
z"/>
<path fill="#052651" opacity="1.000000" stroke="none" 
	d="
M396.207153,857.135498 
	C400.156860,857.100159 403.631897,857.229919 407.091522,857.054749 
	C410.166473,856.899109 411.296631,858.235413 411.076172,861.162292 
	C410.964874,862.640381 410.944550,864.143921 411.079102,865.618042 
	C411.365601,868.757324 410.221436,870.184021 406.880676,870.003296 
	C402.964722,869.791504 399.028473,869.953735 394.266693,869.953735 
	C394.793945,865.333557 395.259888,861.250793 396.207153,857.135498 
z"/>
<path fill="#052651" opacity="1.000000" stroke="none" 
	d="
M448.936218,868.600525 
	C443.727173,869.468933 438.723053,869.915161 433.309662,870.397888 
	C433.309662,865.776123 433.309662,861.753296 433.309662,857.103516 
	C437.564056,857.103516 441.979004,856.906006 446.351929,857.247192 
	C447.399841,857.328979 448.968567,859.103271 449.145142,860.273193 
	C449.533875,862.849365 449.187469,865.536560 448.936218,868.600525 
z"/>
</svg>